<svg id="Capa_1" enable-background="new 0 0 512.46 512.46" height="512" viewBox="0 0 512.46 512.46" width="512" xmlns="http://www.w3.org/2000/svg"><g><g><path d="m425.039 459.413c0 7.84-6.355 14.195-14.195 14.195h-389.149c-7.84 0-14.195-6.355-14.195-14.195v-244.645c0-7.84 6.355-14.195 14.195-14.195h380.804c12.448 0 22.54 10.091 22.54 22.54z" fill="#b4d2e2"/><path d="m126.225 459.413v-244.645c0-7.84 6.355-14.195 14.195-14.195h-118.725c-7.84 0-14.195 6.355-14.195 14.195v244.645c0 7.84 6.355 14.195 14.195 14.195h118.725c-7.839 0-14.195-6.355-14.195-14.195z" fill="#8abbd5"/><path d="m402.499 200.573h-197.956l-5.916 9.183c-12.505 19.41-13.406 44.061-2.352 64.332 11.054 20.272 32.265 32.865 55.355 32.865h173.409v-83.84c0-12.449-10.091-22.54-22.54-22.54z" fill="#8abbd5"/><path d="m466.81 281.953h-215.18c-30.121 0-48.299-33.336-31.987-58.657l107.59-167.001c14.983-23.257 48.99-23.257 63.973 0l107.59 167.001c16.313 25.32-1.865 58.657-31.986 58.657z" fill="#fe646f"/><path d="m307.402 223.295 95.697-148.541-11.893-18.46c-14.983-23.257-48.99-23.257-63.973 0l-107.59 167.001c-16.313 25.321 1.866 58.657 31.987 58.657h87.759c-30.121.001-48.299-33.336-31.987-58.657z" fill="#fd4755"/><path d="m251.63 251.953c-3.95 0-6.024-2.282-7.068-4.196s-1.839-4.893.3-8.213l107.59-167.001c1.965-3.05 4.765-3.69 6.767-3.69 2.003 0 4.802.641 6.768 3.69l107.59 167.001c2.139 3.321 1.344 6.299.3 8.214-1.044 1.914-3.117 4.196-7.067 4.196h-215.18z" fill="#faf7f7"/><path d="m385.256 102.451-19.269-29.909c-1.965-3.05-4.765-3.69-6.768-3.69-2.002 0-4.802.641-6.767 3.69l-107.59 167.001c-2.139 3.321-1.344 6.299-.3 8.213 1.044 1.915 3.118 4.196 7.068 4.196h50.54c-2.057-9.298-.667-19.5 5.233-28.657z" fill="#f9f3f1"/><path d="m57.822 296.278h69.203c6.937 0 12.56-5.623 12.56-12.56v-30.753c0-6.937-5.623-12.56-12.56-12.56h-69.203c-6.937 0-12.56 5.623-12.56 12.56v30.753c0 6.937 5.623 12.56 12.56 12.56z" fill="#fee45a"/><path d="m57.822 296.278h68.404v-55.873h-68.404c-6.937 0-12.56 5.623-12.56 12.56v30.752c0 6.938 5.623 12.561 12.56 12.561z" fill="#fedf30"/><g fill="#fee45a"><circle cx="314.961" cy="417.326" r="20.034"/><circle cx="355.029" cy="417.326" r="20.034"/><circle cx="274.894" cy="417.326" r="20.034"/></g></g><g><path d="m425.039 304.453c-4.142 0-7.5 3.358-7.5 7.5v147.461c0 3.691-3.003 6.695-6.695 6.695h-389.149c-3.692 0-6.695-3.003-6.695-6.695v-244.646c0-3.692 3.003-6.695 6.695-6.695h176.9c4.142 0 7.5-3.358 7.5-7.5s-3.358-7.5-7.5-7.5h-176.9c-11.963 0-21.695 9.733-21.695 21.695v244.645c0 11.962 9.732 21.695 21.695 21.695h389.149c11.962 0 21.695-9.732 21.695-21.695v-147.46c0-4.143-3.358-7.5-7.5-7.5z"/><path d="m505.101 219.233-107.59-167.001c-8.423-13.075-22.738-20.88-38.292-20.88s-29.868 7.806-38.292 20.88l-107.59 167.001c-9.171 14.235-9.807 31.61-1.699 46.477 8.107 14.867 23.057 23.743 39.991 23.743h117.952c4.142 0 7.5-3.358 7.5-7.5s-3.358-7.5-7.5-7.5h-117.951c-11.357 0-21.384-5.953-26.822-15.924-5.437-9.971-5.011-21.624 1.14-31.171l107.59-167.001c5.65-8.769 15.25-14.004 25.682-14.004s20.032 5.235 25.682 14.004l107.59 167.001c6.151 9.547 6.577 21.2 1.14 31.171-5.438 9.971-15.464 15.924-26.821 15.924h-65.266c-4.142 0-7.5 3.358-7.5 7.5s3.358 7.5 7.5 7.5h65.266c16.934 0 31.883-8.876 39.99-23.743s7.471-32.241-1.7-46.477z"/><path d="m312.722 148.06c2.244-3.482 1.239-8.124-2.243-10.367-3.481-2.243-8.124-1.24-10.367 2.243l-61.555 95.545c-3.177 4.933-3.389 10.715-.58 15.865 2.809 5.151 7.785 8.106 13.653 8.106h215.18c5.867 0 10.842-2.954 13.652-8.105 2.809-5.151 2.597-10.934-.581-15.866l-107.589-167.002c-2.919-4.53-7.684-7.128-13.072-7.128s-10.152 2.598-13.072 7.128l-28.724 44.586c-2.244 3.482-1.239 8.124 2.243 10.367 3.481 2.243 8.123 1.24 10.367-2.243l28.724-44.585c.098-.152.163-.215.163-.22.033-.011.133-.033.3-.033.182 0 .281.025.278.018 0 0 .07.056.185.234l107.589 167.001c.096.149.137.244.151.256-.013.052-.05.158-.13.305-.09.165-.166.256-.144.257-.032.008-.136.03-.339.03h-215.181c-.177 0-.278-.016-.297-.012-.036-.039-.105-.128-.186-.276-.091-.167-.128-.274-.138-.258.01-.031.048-.131.158-.302z"/><path d="m351.72 224.715c0 4.142 3.358 7.5 7.5 7.5s7.5-3.358 7.5-7.5v-14.269c0-4.142-3.358-7.5-7.5-7.5s-7.5 3.358-7.5 7.5z"/><path d="m359.22 184.237c4.142 0 7.5-3.358 7.5-7.5v-57.718c0-4.142-3.358-7.5-7.5-7.5s-7.5 3.358-7.5 7.5v57.718c0 4.142 3.358 7.5 7.5 7.5z"/><path d="m57.822 247.906h13.675c4.142 0 7.5-3.358 7.5-7.5s-3.358-7.5-7.5-7.5h-13.675c-11.061 0-20.06 8.999-20.06 20.06v30.752c0 11.061 8.999 20.06 20.06 20.06h69.203c11.061 0 20.06-8.999 20.06-20.06v-30.752c0-11.061-8.999-20.06-20.06-20.06h-23.565c-4.142 0-7.5 3.358-7.5 7.5s3.358 7.5 7.5 7.5h23.565c2.79 0 5.06 2.27 5.06 5.06v30.752c0 2.79-2.27 5.06-5.06 5.06h-69.203c-2.79 0-5.06-2.27-5.06-5.06v-30.752c0-2.79 2.27-5.06 5.06-5.06z"/><path d="m334.995 398.468c-5.025-5.335-12.144-8.675-20.034-8.675-7.889 0-15.009 3.34-20.033 8.675-5.025-5.335-12.144-8.675-20.034-8.675-15.182 0-27.534 12.352-27.534 27.534s12.352 27.533 27.534 27.533c7.889 0 15.009-3.34 20.034-8.675 5.025 5.334 12.144 8.675 20.033 8.675s15.009-3.34 20.034-8.675c5.025 5.334 12.144 8.675 20.033 8.675 15.182 0 27.534-12.352 27.534-27.533 0-15.182-12.352-27.534-27.534-27.534-7.889 0-15.008 3.34-20.033 8.675zm-60.1 31.392c-6.911 0-12.534-5.623-12.534-12.533 0-6.911 5.623-12.534 12.534-12.534s12.534 5.623 12.534 12.534c-.001 6.91-5.623 12.533-12.534 12.533zm40.066 0c-6.911 0-12.533-5.623-12.533-12.533 0-6.911 5.623-12.534 12.533-12.534 6.911 0 12.534 5.623 12.534 12.534 0 6.91-5.622 12.533-12.534 12.533zm52.601-12.533c0 6.911-5.623 12.533-12.534 12.533s-12.533-5.623-12.533-12.533c0-6.911 5.623-12.534 12.533-12.534 6.911 0 12.534 5.622 12.534 12.534z"/><path d="m54.007 329.591c-4.142 0-7.5 3.358-7.5 7.5s3.358 7.5 7.5 7.5h17.49c4.142 0 7.5-3.358 7.5-7.5s-3.358-7.5-7.5-7.5z"/><path d="m99.904 337.091c0 4.142 3.358 7.5 7.5 7.5h278.16c4.142 0 7.5-3.358 7.5-7.5s-3.358-7.5-7.5-7.5h-278.16c-4.142 0-7.5 3.358-7.5 7.5z"/><path d="m54.007 399.334h165.778c4.142 0 7.5-3.358 7.5-7.5s-3.358-7.5-7.5-7.5h-165.778c-4.142 0-7.5 3.358-7.5 7.5s3.358 7.5 7.5 7.5z"/></g></g></svg>