<?xml version="1.0" encoding="iso-8859-1"?>
<!-- Generator: Adobe Illustrator 19.0.0, SVG Export Plug-In . SVG Version: 6.00 Build 0)  -->
<svg version="1.1" id="Capa_1" xmlns="http://www.w3.org/2000/svg" xmlns:xlink="http://www.w3.org/1999/xlink" x="0px" y="0px"
	 viewBox="0 0 512 512" style="enable-background:new 0 0 512 512;" xml:space="preserve">
<g>
	<path style="fill:#409FFF;" d="M28.646,101.581l395.333-75.268c14.121-2.688,27.735,6.578,30.42,20.682l5.153,27.065l-218.8,65.729
		L13.106,159.06l-5.153-27.065C5.268,117.891,14.524,104.27,28.646,101.581z"/>
	<path style="fill:#409FFF;" d="M240.752,139.789l227.645-19.271l29.192,153.328c2.687,14.112-6.569,27.733-20.691,30.422
		L81.566,379.536c-14.121,2.688-27.735-6.578-30.422-20.691L21.952,205.518L240.752,139.789z"/>
</g>
<g>
	<path style="fill:#3A8FE6;" d="M70.179,93.673l-41.535,7.907c-14.121,2.688-23.377,16.311-20.692,30.413l5.153,27.065l68.42-5.792
		L70.179,93.673z"/>
	<path style="fill:#3A8FE6;" d="M87.713,185.763l-65.761,19.756l29.192,153.327c2.687,14.113,16.301,23.379,30.422,20.691
		l41.534-7.908L87.713,185.763z"/>
</g>
<rect x="217.117" y="-87.465" transform="matrix(0.187 0.9824 -0.9824 0.187 333.0549 -122.8774)" style="fill:#36474F;" width="47.294" height="454.485"/>
<rect x="16.93" y="152.241" transform="matrix(0.9824 -0.187 0.187 0.9824 -31.9887 12.6535)" style="fill:#2C3940;" width="68.295" height="47.294"/>
<path style="fill:#DBDBDB;" d="M375.296,169.994l43.633-8.307c6.984-1.33,13.724,3.254,15.053,10.237l5.841,30.68
	c1.33,6.984-3.254,13.724-10.237,15.053l-43.633,8.307c-6.984,1.33-13.724-3.254-15.053-10.237l-5.841-30.68
	C363.728,178.063,368.311,171.324,375.296,169.994z"/>
<g>
	<path style="fill:#EF5350;" d="M478.494,203.202H76.059c-14.375,0-26.015,11.649-26.015,26.006v27.551l227.232,23.647
		l227.232-23.647v-27.551C504.509,214.853,492.868,203.202,478.494,203.202z"/>
	<path style="fill:#EF5350;" d="M277.276,280.407L50.044,304.053v156.082c0,14.366,11.64,26.015,26.015,26.015h402.434
		c14.375,0,26.015-11.649,26.015-26.015V304.053L277.276,280.407z"/>
</g>
<path style="fill:#D44A47;" d="M110.046,304.054H50.044v156.082c0,14.366,11.64,26.015,26.015,26.015h33.987V304.054z"/>
<path style="fill:#DBDBDB;" d="M150.755,335.243h-44.417c-7.109,0-12.872,5.763-12.872,12.872v31.231
	c0,7.109,5.763,12.872,12.872,12.872h44.417c7.109,0,12.872-5.763,12.872-12.872v-31.231
	C163.628,341.007,157.865,335.243,150.755,335.243z"/>
<path style="fill:#BFBFBF;" d="M106.339,335.243c-7.109,0-12.872,5.763-12.872,12.872v31.231c0,7.109,5.763,12.872,12.872,12.872
	h3.707v-56.976L106.339,335.243L106.339,335.243z"/>
<circle style="fill:#409FFF;" cx="341.082" cy="367.224" r="31.979"/>
<circle style="fill:#FFD54F;" cx="393.134" cy="367.224" r="31.979"/>
<path style="fill:#D44A47;" d="M110.046,229.208c0-14.356,11.64-26.006,26.015-26.006H76.059c-12.577,0-23.062,8.919-25.487,20.767
	c-0.173,0.847-0.305,1.708-0.394,2.582c-0.089,0.874-0.134,1.761-0.134,2.658v27.551l60.002,6.244V229.208z"/>
<rect x="50.042" y="256.759" style="fill:#36474F;" width="454.467" height="47.292"/>
<rect x="50.042" y="256.759" style="fill:#2C3940;" width="60.002" height="47.292"/>
<path d="M106.33,399.71h44.417c11.233,0,20.373-9.139,20.373-20.373v-31.231c0-11.233-9.139-20.373-20.373-20.373H106.33
	c-11.233,0-20.373,9.139-20.373,20.373v31.231C85.957,390.57,95.096,399.71,106.33,399.71z M100.958,348.106
	c0-2.962,2.41-5.372,5.372-5.372h44.417c2.962,0,5.372,2.41,5.372,5.372v31.231c0,2.962-2.41,5.372-5.372,5.372H106.33
	c-2.962,0-5.372-2.41-5.372-5.372C100.958,379.337,100.958,348.106,100.958,348.106z"/>
<path d="M93.457,440.11h51.874c4.142,0,7.5-3.358,7.5-7.5s-3.358-7.5-7.5-7.5H93.457c-4.142,0-7.5,3.358-7.5,7.5
	S89.315,440.11,93.457,440.11z"/>
<path d="M184.648,440.11h51.874c4.142,0,7.5-3.358,7.5-7.5s-3.358-7.5-7.5-7.5h-51.874c-4.142,0-7.5,3.358-7.5,7.5
	S180.505,440.11,184.648,440.11z"/>
<path d="M275.838,440.11h51.874c4.142,0,7.5-3.358,7.5-7.5s-3.358-7.5-7.5-7.5h-51.874c-4.142,0-7.5,3.358-7.5,7.5
	S271.696,440.11,275.838,440.11z"/>
<path d="M418.902,425.11h-51.874c-4.142,0-7.5,3.358-7.5,7.5s3.358,7.5,7.5,7.5h51.874c4.142,0,7.5-3.358,7.5-7.5
	S423.044,425.11,418.902,425.11z"/>
<path d="M42.534,353.766v106.36c0,18.48,15.035,33.515,33.515,33.515h402.435c18.481,0,33.515-15.036,33.515-33.515V229.199
	c0-14.135-8.804-26.244-21.216-31.158c0,0-28.997-152.301-29.027-152.459c-3.416-17.943-21.249-30.063-39.19-26.647l-52.1,9.919
	c-4.069,0.774-6.74,4.701-5.965,8.771c0.775,4.069,4.701,6.738,8.771,5.965c0,0,52.016-9.903,52.1-9.919
	c9.931-1.891,19.764,4.813,21.65,14.717l3.75,19.697l-431.71,82.193c0,0-3.747-19.682-3.75-19.697
	c-1.893-9.944,4.817-19.756,14.728-21.643l310.576-59.131c4.069-0.775,6.74-4.702,5.965-8.77c-0.775-4.069-4.701-6.738-8.771-5.965
	c0,0-310.318,59.082-310.576,59.131c-17.94,3.415-30.074,21.24-26.657,39.183L42.534,353.766z M475.067,195.693h-28.932
	l-4.794-25.182c-1.828-9.598-10.239-16.564-20-16.564c-1.277,0-2.563,0.122-3.825,0.362l-43.633,8.307
	c-5.346,1.018-9.975,4.056-13.035,8.556c-3.06,4.5-4.185,9.921-3.167,15.268l1.761,9.253H113.599l348.824-66.413L475.067,195.693z
	 M372.417,183.635c-0.268-1.41,0.028-2.839,0.835-4.026c0.807-1.187,2.028-1.987,3.438-2.256l43.633-8.307
	c0.338-0.064,0.681-0.097,1.019-0.097c2.567,0,4.781,1.838,5.263,4.369l4.26,22.376h-56.152L372.417,183.635z M453.578,82.821
	l6.04,31.723l-431.71,82.194l-6.04-31.723L453.578,82.821z M50.337,207.738c-4.866,5.817-7.802,13.302-7.802,21.461v44.362
	l-11.82-62.087L50.337,207.738z M496.999,296.544H57.535v-32.293h439.464V296.544z M496.999,460.126
	c0,10.209-8.305,18.515-18.515,18.515H76.049c-10.208,0-18.515-8.305-18.515-18.515V311.544h439.464v148.582H496.999z
	 M496.999,249.25H57.535v-20.051c0-10.204,8.306-18.506,18.515-18.506h402.435c1.314,0,2.636,0.15,3.92,0.426
	c8.331,1.804,14.595,9.22,14.595,18.08L496.999,249.25L496.999,249.25z"/>
<path d="M393.133,327.743c-9.963,0-19.069,3.718-26.023,9.828c-7.135-6.254-16.378-9.828-26.031-9.828
	c-21.769,0-39.479,17.71-39.479,39.479c0,21.77,17.711,39.479,39.479,39.479c9.653,0,18.896-3.574,26.031-9.828
	c6.954,6.11,16.061,9.828,26.023,9.828c21.77,0,39.48-17.711,39.48-39.48C432.614,345.452,414.903,327.743,393.133,327.743z
	 M341.079,391.701c-13.498,0-24.479-10.981-24.479-24.479c0-13.498,10.981-24.479,24.479-24.479c6.285,0,12.295,2.443,16.804,6.694
	c0.05,0.047-0.509,1.082-0.55,1.17c-2.413,5.177-3.679,10.902-3.679,16.615c0,6.138,1.455,12.304,4.229,17.785
	C353.376,389.258,347.365,391.701,341.079,391.701z M393.133,391.702c-13.219,0-24.479-11.17-24.479-24.48
	c0-13.266,11.207-24.479,24.479-24.479c13.498,0,24.48,10.981,24.48,24.48C417.613,380.722,406.632,391.702,393.133,391.702z"/>
<g>
</g>
<g>
</g>
<g>
</g>
<g>
</g>
<g>
</g>
<g>
</g>
<g>
</g>
<g>
</g>
<g>
</g>
<g>
</g>
<g>
</g>
<g>
</g>
<g>
</g>
<g>
</g>
<g>
</g>
</svg>
