<svg id="Capa_1" enable-background="new 0 0 512 512" height="512" viewBox="0 0 512 512" width="512" xmlns="http://www.w3.org/2000/svg"><path d="m440.092 175.413v-93.029c0-5.786-4.69-10.476-10.476-10.476h-93.028c-2.779 0-5.443-1.104-7.408-3.068l-65.772-65.772c-4.091-4.091-10.725-4.091-14.816 0l-65.771 65.772c-1.965 1.965-4.629 3.068-7.408 3.068h-93.029c-5.786 0-10.476 4.69-10.476 10.476v93.028c0 2.779-1.104 5.443-3.068 7.408l-65.772 65.772c-4.091 4.091-4.091 10.725 0 14.816l65.771 65.771c1.965 1.965 3.068 4.629 3.068 7.408v93.028c0 5.786 4.69 10.476 10.476 10.476h93.028c2.779 0 5.443 1.104 7.408 3.068l65.771 65.771c4.091 4.091 10.725 4.091 14.816 0l65.771-65.771c1.965-1.965 4.629-3.068 7.408-3.068h93.028c5.786 0 10.476-4.69 10.476-10.476v-93.028c0-2.779 1.104-5.443 3.068-7.408l65.771-65.771c4.091-4.091 4.091-10.725 0-14.816l-65.771-65.771c-1.961-1.965-3.065-4.63-3.065-7.408zm-184.092 220.971c-77.536 0-140.384-62.848-140.384-140.384s62.848-140.384 140.384-140.384 140.384 62.848 140.384 140.384-62.848 140.384-140.384 140.384z" fill="#84aee1"/><path d="m336.591 440.093c-2.781 0-5.45 1.102-7.407 3.07l-65.777 65.767c-4.09 4.09-10.724 4.09-14.814 0l-6.758-6.758 59.019-59.009c1.957-1.968 4.625-3.07 7.407-3.07z" fill="#5591d6"/><path d="m336.591 71.907h-28.33c-2.781 0-5.45-1.102-7.407-3.07l-59.019-59.009 6.758-6.758c4.09-4.09 10.724-4.09 14.814 0l65.777 65.767c1.957 1.967 4.626 3.07 7.407 3.07z" fill="#5591d6"/><path d="m508.93 263.407-65.767 65.777c-1.968 1.957-3.07 4.625-3.07 7.407v93.025c0 5.789-4.687 10.477-10.477 10.477h-28.33c5.79 0 10.477-4.687 10.477-10.477v-93.025c0-2.781 1.102-5.45 3.07-7.407l65.767-65.777c4.09-4.09 4.09-10.724 0-14.814l-65.767-65.777c-1.968-1.957-3.07-4.626-3.07-7.407v-93.025c0-5.79-4.687-10.477-10.477-10.477h28.33c5.79 0 10.477 4.687 10.477 10.477v93.025c0 2.781 1.102 5.45 3.07 7.407l65.767 65.777c4.09 4.09 4.09 10.724 0 14.814z" fill="#5591d6"/><g fill="#84aee1"><path d="m165.034 44.11c-3.032 0-5.909-1.796-7.141-4.772l-11.626-28.069c-1.633-3.943.239-8.462 4.182-10.095 3.942-1.631 8.462.238 10.095 4.181l11.626 28.069c1.633 3.943-.239 8.462-4.182 10.095-.967.401-1.969.591-2.954.591z"/><path d="m358.599 511.417c-3.032 0-5.908-1.796-7.141-4.772l-11.627-28.069c-1.634-3.943.238-8.462 4.181-10.095 3.942-1.634 8.462.238 10.095 4.181l11.627 28.069c1.634 3.943-.238 8.462-4.181 10.095-.967.4-1.97.591-2.954.591z"/><path d="m153.401 511.417c-.985 0-1.986-.189-2.954-.591-3.942-1.633-5.814-6.152-4.182-10.095l11.626-28.069c1.633-3.942 6.151-5.818 10.095-4.181 3.942 1.633 5.814 6.152 4.182 10.095l-11.626 28.069c-1.232 2.975-4.109 4.772-7.141 4.772z"/><path d="m346.966 44.11c-.986 0-1.987-.189-2.954-.591-3.943-1.633-5.815-6.152-4.181-10.095l11.627-28.069c1.633-3.942 6.155-5.816 10.095-4.181 3.943 1.633 5.815 6.152 4.181 10.095l-11.627 28.069c-1.233 2.975-4.109 4.772-7.141 4.772z"/><path d="m475.622 172.76c-3.032 0-5.908-1.796-7.141-4.772-1.634-3.943.238-8.462 4.181-10.095l28.069-11.627c3.943-1.633 8.462.238 10.095 4.181 1.634 3.943-.238 8.462-4.181 10.095l-28.069 11.627c-.967.4-1.969.591-2.954.591z"/><path d="m8.315 366.324c-3.032 0-5.909-1.796-7.141-4.772-1.633-3.943.239-8.462 4.182-10.095l28.069-11.627c3.943-1.632 8.462.238 10.095 4.181s-.239 8.462-4.182 10.095l-28.069 11.627c-.967.401-1.969.591-2.954.591z"/><path d="m36.378 172.76c-.985 0-1.987-.189-2.954-.591l-28.069-11.627c-3.942-1.633-5.814-6.152-4.182-10.095 1.633-3.942 6.154-5.818 10.095-4.181l28.069 11.627c3.942 1.633 5.814 6.152 4.182 10.095-1.232 2.975-4.11 4.772-7.141 4.772z"/><path d="m503.685 366.324c-.986 0-1.987-.189-2.954-.591l-28.069-11.627c-3.943-1.633-5.815-6.152-4.181-10.095 1.634-3.942 6.155-5.816 10.095-4.181l28.069 11.627c3.943 1.633 5.815 6.152 4.181 10.095-1.232 2.975-4.109 4.772-7.141 4.772z"/></g><path d="m363.137 255.337c.359 59.193-47.943 107.803-107.137 107.802-3.072 0-6.113-.129-9.119-.382-10.406-.876-13.029-14.907-3.656-19.513 32.199-15.822 54.354-48.942 54.354-87.244s-22.155-71.422-54.354-87.244c-9.359-4.599-6.763-18.633 3.628-19.51 3.015-.255 6.066-.385 9.147-.385 58.952 0 106.78 47.607 107.137 106.476z" fill="#5591d6"/><path d="m363.139 255.341c.361 59.194-47.945 107.798-107.139 107.798-3.07 0-6.109-.134-9.117-.381-.69-.062-1.339-.175-1.957-.34 53.405-6.212 95.096-52.065 94.756-107.077-.34-54.692-41.619-99.649-94.746-105.758.608-.165 1.246-.278 1.916-.34 3.018-.247 6.068-.381 9.148-.381 58.957-.001 106.778 47.604 107.139 106.479z" fill="#1980ce"/></svg>