<svg id="Filled" height="512" viewBox="0 0 512 512" width="512" xmlns="http://www.w3.org/2000/svg"><rect fill="#e9eef2" height="448" rx="16" transform="matrix(-1 0 0 -1 512 510.964)" width="464" x="24" y="31.482"/><path d="m488 47.482v48h-464v-48a16 16 0 0 1 16-16h432a16 16 0 0 1 16 16z" fill="#c3c6c7"/><path d="m72 144h96v96h-96z" fill="#2d85cc"/><path d="m136 240h-64l32-48z" fill="#88c791"/><path d="m208 144h96v96h-96z" fill="#2d85cc"/><path d="m272 240h-64l32-48z" fill="#88c791"/><path d="m344 144h96v96h-96z" fill="#2d85cc"/><path d="m408 240h-64l32-48z" fill="#88c791"/><path d="m72 304h96v96h-96z" fill="#2d85cc"/><path d="m136 400h-64l32-48z" fill="#88c791"/><path d="m208 304h96v96h-96z" fill="#2d85cc"/><path d="m272 400h-64l32-48z" fill="#88c791"/><path d="m344 304h96v96h-96z" fill="#2d85cc"/><path d="m408 400h-64l32-48z" fill="#88c791"/><path d="m472 24h-432a24.028 24.028 0 0 0 -24 24v416a24.028 24.028 0 0 0 24 24h432a24.028 24.028 0 0 0 24-24v-416a24.028 24.028 0 0 0 -24-24zm-432 16h432a8.009 8.009 0 0 1 8 8v40h-448v-40a8.009 8.009 0 0 1 8-8zm432 432h-432a8.009 8.009 0 0 1 -8-8v-360h448v360a8.009 8.009 0 0 1 -8 8z"/><circle cx="120" cy="64" r="8"/><circle cx="88" cy="64" r="8"/><circle cx="56" cy="64" r="8"/><path d="m72 280h56a8 8 0 0 0 0-16h-56a8 8 0 0 0 0 16z"/><path d="m168 136h-96a8 8 0 0 0 -8 8v96a8 8 0 0 0 8 8h96a8 8 0 0 0 8-8v-96a8 8 0 0 0 -8-8zm-81.052 96 17.052-25.578 17.052 25.578zm73.052 0h-19.719l-29.625-44.438a8 8 0 0 0 -13.312 0l-17.344 26.016v-61.578h80z"/><circle cx="136" cy="176" r="8"/><path d="m304 136h-96a8 8 0 0 0 -8 8v96a8 8 0 0 0 8 8h96a8 8 0 0 0 8-8v-96a8 8 0 0 0 -8-8zm-81.052 96 17.052-25.578 17.052 25.578zm73.052 0h-19.719l-29.625-44.438a8 8 0 0 0 -13.312 0l-17.344 26.016v-61.578h80z"/><circle cx="272" cy="176" r="8"/><path d="m440 136h-96a8 8 0 0 0 -8 8v96a8 8 0 0 0 8 8h96a8 8 0 0 0 8-8v-96a8 8 0 0 0 -8-8zm-81.052 96 17.052-25.578 17.052 25.578zm73.052 0h-19.719l-29.625-44.438a8 8 0 0 0 -13.312 0l-17.344 26.016v-61.578h80z"/><circle cx="408" cy="176" r="8"/><path d="m168 296h-96a8 8 0 0 0 -8 8v96a8 8 0 0 0 8 8h96a8 8 0 0 0 8-8v-96a8 8 0 0 0 -8-8zm-81.052 96 17.052-25.578 17.052 25.578zm73.052 0h-19.719l-29.625-44.438a8 8 0 0 0 -13.312 0l-17.344 26.016v-61.578h80z"/><circle cx="136" cy="336" r="8"/><path d="m304 296h-96a8 8 0 0 0 -8 8v96a8 8 0 0 0 8 8h96a8 8 0 0 0 8-8v-96a8 8 0 0 0 -8-8zm-81.052 96 17.052-25.578 17.052 25.578zm73.052 0h-19.719l-29.625-44.438a8 8 0 0 0 -13.312 0l-17.344 26.016v-61.578h80z"/><circle cx="272" cy="336" r="8"/><path d="m440 296h-96a8 8 0 0 0 -8 8v96a8 8 0 0 0 8 8h96a8 8 0 0 0 8-8v-96a8 8 0 0 0 -8-8zm-81.052 96 17.052-25.578 17.052 25.578zm73.052 0h-19.719l-29.625-44.438a8 8 0 0 0 -13.312 0l-17.344 26.016v-61.578h80z"/><circle cx="408" cy="336" r="8"/><circle cx="168" cy="272" r="8"/><path d="m208 280h56a8 8 0 0 0 0-16h-56a8 8 0 0 0 0 16z"/><circle cx="304" cy="272" r="8"/><path d="m344 280h56a8 8 0 0 0 0-16h-56a8 8 0 0 0 0 16z"/><circle cx="440" cy="272" r="8"/><path d="m128 424h-56a8 8 0 0 0 0 16h56a8 8 0 0 0 0-16z"/><circle cx="168" cy="432" r="8"/><path d="m264 424h-56a8 8 0 0 0 0 16h56a8 8 0 0 0 0-16z"/><circle cx="304" cy="432" r="8"/><path d="m400 424h-56a8 8 0 0 0 0 16h56a8 8 0 0 0 0-16z"/><circle cx="440" cy="432" r="8"/></svg>