<svg id="Capa_1" enable-background="new 0 0 512 512" height="512" viewBox="0 0 512 512" width="512" xmlns="http://www.w3.org/2000/svg"><path d="m440.092 175.413v-93.029c0-5.786-4.69-10.476-10.476-10.476h-93.028c-2.779 0-5.443-1.104-7.408-3.068l-65.772-65.772c-4.091-4.091-10.725-4.091-14.816 0l-65.771 65.772c-1.965 1.965-4.629 3.068-7.408 3.068h-93.029c-5.786 0-10.476 4.69-10.476 10.476v93.028c0 2.779-1.104 5.443-3.068 7.408l-65.772 65.772c-4.091 4.091-4.091 10.725 0 14.816l65.771 65.771c1.965 1.965 3.068 4.629 3.068 7.408v93.028c0 5.786 4.69 10.476 10.476 10.476h93.028c2.779 0 5.443 1.104 7.408 3.068l65.771 65.771c4.091 4.091 10.725 4.091 14.816 0l65.771-65.771c1.965-1.965 4.629-3.068 7.408-3.068h93.028c5.786 0 10.476-4.69 10.476-10.476v-93.028c0-2.779 1.104-5.443 3.068-7.408l65.771-65.771c4.091-4.091 4.091-10.725 0-14.816l-65.771-65.771c-1.961-1.965-3.065-4.63-3.065-7.408zm-184.092 220.971c-77.536 0-140.384-62.848-140.384-140.384s62.848-140.384 140.384-140.384 140.384 62.848 140.384 140.384-62.848 140.384-140.384 140.384z" fill="#fcc16d"/><path d="m336.591 440.093c-2.781 0-5.45 1.102-7.407 3.07l-65.777 65.767c-4.09 4.09-10.724 4.09-14.814 0l-6.758-6.758 59.019-59.009c1.957-1.968 4.625-3.07 7.407-3.07z" fill="#fcb44d"/><path d="m336.591 71.907h-28.33c-2.781 0-5.45-1.102-7.407-3.07l-59.019-59.009 6.758-6.758c4.09-4.09 10.724-4.09 14.814 0l65.777 65.767c1.957 1.967 4.626 3.07 7.407 3.07z" fill="#fcb44d"/><path d="m508.93 263.407-65.767 65.777c-1.968 1.957-3.07 4.625-3.07 7.407v93.025c0 5.789-4.687 10.477-10.477 10.477h-28.33c5.79 0 10.477-4.687 10.477-10.477v-93.025c0-2.781 1.102-5.45 3.07-7.407l65.767-65.777c4.09-4.09 4.09-10.724 0-14.814l-65.767-65.777c-1.968-1.957-3.07-4.626-3.07-7.407v-93.025c0-5.79-4.687-10.477-10.477-10.477h28.33c5.79 0 10.477 4.687 10.477 10.477v93.025c0 2.781 1.102 5.45 3.07 7.407l65.767 65.777c4.09 4.09 4.09 10.724 0 14.814z" fill="#fcb44d"/><g fill="#fcc16d"><path d="m165.034 44.11c-3.032 0-5.909-1.796-7.141-4.772l-11.626-28.069c-1.633-3.943.239-8.462 4.182-10.095 3.942-1.631 8.463.238 10.095 4.181l11.626 28.069c1.633 3.943-.239 8.462-4.182 10.095-.967.401-1.969.591-2.954.591z"/><path d="m358.599 511.417c-3.032 0-5.909-1.796-7.141-4.772l-11.626-28.069c-1.633-3.943.239-8.462 4.182-10.095 3.942-1.632 8.463.238 10.095 4.181l11.626 28.069c1.633 3.943-.239 8.462-4.182 10.095-.967.4-1.969.591-2.954.591z"/><path d="m153.401 511.417c-.985 0-1.986-.189-2.954-.591-3.942-1.633-5.814-6.152-4.182-10.095l11.626-28.069c1.632-3.942 6.151-5.818 10.095-4.181 3.942 1.633 5.814 6.152 4.182 10.095l-11.626 28.069c-1.232 2.975-4.109 4.772-7.141 4.772z"/><path d="m346.966 44.11c-.985 0-1.986-.189-2.954-.591-3.942-1.633-5.814-6.152-4.182-10.095l11.626-28.069c1.633-3.942 6.151-5.817 10.095-4.181 3.942 1.633 5.814 6.152 4.182 10.095l-11.626 28.069c-1.232 2.975-4.109 4.772-7.141 4.772z"/><path d="m475.622 172.76c-3.032 0-5.908-1.796-7.141-4.772-1.633-3.943.239-8.462 4.182-10.095l28.069-11.627c3.943-1.633 8.462.238 10.095 4.181s-.239 8.462-4.182 10.095l-28.069 11.627c-.967.4-1.968.591-2.954.591z"/><path d="m8.315 366.324c-3.032 0-5.909-1.796-7.141-4.772-1.633-3.943.239-8.462 4.182-10.095l28.069-11.627c3.942-1.632 8.462.238 10.095 4.181s-.239 8.462-4.182 10.095l-28.069 11.627c-.967.401-1.969.591-2.954.591z"/><path d="m36.378 172.76c-.985 0-1.987-.189-2.954-.591l-28.069-11.627c-3.942-1.633-5.814-6.152-4.182-10.095 1.633-3.942 6.153-5.818 10.095-4.181l28.069 11.627c3.942 1.633 5.814 6.152 4.182 10.095-1.232 2.975-4.11 4.772-7.141 4.772z"/><path d="m503.685 366.324c-.985 0-1.987-.189-2.954-.591l-28.069-11.627c-3.942-1.633-5.814-6.152-4.182-10.095 1.633-3.942 6.152-5.817 10.095-4.181l28.069 11.627c3.942 1.633 5.814 6.152 4.182 10.095-1.232 2.975-4.109 4.772-7.141 4.772z"/></g></svg>