<?xml version="1.0" encoding="iso-8859-1"?>
<!-- Generator: Adobe Illustrator 19.0.0, SVG Export Plug-In . SVG Version: 6.00 Build 0)  -->
<svg version="1.1" id="Capa_1" xmlns="http://www.w3.org/2000/svg" xmlns:xlink="http://www.w3.org/1999/xlink" x="0px" y="0px"
	 viewBox="0 0 194.56 194.56" style="enable-background:new 0 0 194.56 194.56;" xml:space="preserve">
<rect x="10.24" y="3.413" style="fill:#DDDDDD;" width="51.2" height="51.2"/>
<path d="M61.44,58.027h-51.2c-1.884,0-3.413-1.527-3.413-3.413v-51.2C6.827,1.527,8.356,0,10.24,0h51.2
	c1.884,0,3.413,1.527,3.413,3.413v51.2C64.853,56.499,63.324,58.027,61.44,58.027z M13.653,51.2h44.373V6.827H13.653V51.2z"/>
<rect x="10.24" y="71.68" style="fill:#DDDDDD;" width="51.2" height="51.2"/>
<path d="M61.44,126.293h-51.2c-1.884,0-3.413-1.527-3.413-3.413v-51.2c0-1.886,1.529-3.413,3.413-3.413h51.2
	c1.884,0,3.413,1.527,3.413,3.413v51.2C64.853,124.766,63.324,126.293,61.44,126.293z M13.653,119.467h44.373V75.093H13.653V119.467
	z"/>
<path d="M184.32,10.24H81.92c-1.884,0-3.413-1.527-3.413-3.413s1.529-3.413,3.413-3.413h102.4c1.886,0,3.413,1.527,3.413,3.413
	S186.206,10.24,184.32,10.24z"/>
<path d="M150.187,34.133H81.92c-1.884,0-3.413-1.527-3.413-3.413c0-1.886,1.529-3.413,3.413-3.413h68.267
	c1.886,0,3.413,1.527,3.413,3.413C153.6,32.606,152.073,34.133,150.187,34.133z"/>
<path d="M167.253,78.507H81.92c-1.884,0-3.413-1.527-3.413-3.413c0-1.886,1.529-3.413,3.413-3.413h85.333
	c1.886,0,3.413,1.527,3.413,3.413C170.667,76.979,169.139,78.507,167.253,78.507z"/>
<path d="M112.64,102.4H81.92c-1.884,0-3.413-1.527-3.413-3.413c0-1.886,1.529-3.413,3.413-3.413h30.72
	c1.886,0,3.413,1.527,3.413,3.413C116.053,100.873,114.526,102.4,112.64,102.4z"/>
<rect x="10.24" y="139.947" style="fill:#DDDDDD;" width="51.2" height="51.2"/>
<path d="M61.44,194.56h-51.2c-1.884,0-3.413-1.527-3.413-3.413v-51.2c0-1.886,1.529-3.413,3.413-3.413h51.2
	c1.884,0,3.413,1.527,3.413,3.413v51.2C64.853,193.033,63.324,194.56,61.44,194.56z M13.653,187.733h44.373V143.36H13.653V187.733z"
	/>
<path d="M174.08,146.773H81.92c-1.884,0-3.413-1.527-3.413-3.413c0-1.886,1.529-3.413,3.413-3.413h92.16
	c1.886,0,3.413,1.527,3.413,3.413C177.493,145.246,175.966,146.773,174.08,146.773z"/>
<path d="M160.427,170.667H81.92c-1.884,0-3.413-1.527-3.413-3.413c0-1.886,1.529-3.413,3.413-3.413h78.507
	c1.886,0,3.413,1.527,3.413,3.413C163.84,169.139,162.313,170.667,160.427,170.667z"/>
<circle style="fill:#EC5582;" cx="35.84" cy="29.013" r="11.947"/>
<path d="M35.84,44.373c-8.47,0-15.36-6.89-15.36-15.36s6.89-15.36,15.36-15.36s15.36,6.89,15.36,15.36S44.31,44.373,35.84,44.373z
	 M35.84,20.48c-4.705,0-8.533,3.826-8.533,8.533s3.828,8.533,8.533,8.533s8.533-3.826,8.533-8.533S40.545,20.48,35.84,20.48z"/>
<circle style="fill:#EC5582;" cx="35.84" cy="97.28" r="11.947"/>
<path d="M35.84,112.64c-8.47,0-15.36-6.89-15.36-15.36s6.89-15.36,15.36-15.36S51.2,88.81,51.2,97.28S44.31,112.64,35.84,112.64z
	 M35.84,88.747c-4.705,0-8.533,3.826-8.533,8.533c0,4.707,3.828,8.533,8.533,8.533s8.533-3.826,8.533-8.533
	C44.373,92.573,40.545,88.747,35.84,88.747z"/>
<circle style="fill:#EC5582;" cx="35.84" cy="165.547" r="11.947"/>
<path d="M35.84,180.907c-8.47,0-15.36-6.89-15.36-15.36c0-8.47,6.89-15.36,15.36-15.36s15.36,6.89,15.36,15.36
	C51.2,174.017,44.31,180.907,35.84,180.907z M35.84,157.013c-4.705,0-8.533,3.826-8.533,8.533c0,4.707,3.828,8.533,8.533,8.533
	s8.533-3.826,8.533-8.533C44.373,160.84,40.545,157.013,35.84,157.013z"/>
<g>
</g>
<g>
</g>
<g>
</g>
<g>
</g>
<g>
</g>
<g>
</g>
<g>
</g>
<g>
</g>
<g>
</g>
<g>
</g>
<g>
</g>
<g>
</g>
<g>
</g>
<g>
</g>
<g>
</g>
</svg>
