<?xml version="1.0" encoding="iso-8859-1"?>
<!-- Generator: Adobe Illustrator 19.0.0, SVG Export Plug-In . SVG Version: 6.00 Build 0)  -->
<svg version="1.1" id="Capa_1" xmlns="http://www.w3.org/2000/svg" xmlns:xlink="http://www.w3.org/1999/xlink" x="0px" y="0px"
	 viewBox="0 0 512 512" style="enable-background:new 0 0 512 512;" xml:space="preserve">
<path style="fill:#FED0A4;" d="M458.667,309.333c0-11.733,9.6-21.333,21.333-21.333c11.733,0,21.333,9.6,21.333,21.333v53.333
	c0,0-21.333,53.333-42.667,74.667v32H341.333v-32C298.667,416,288,394.667,288,394.667v-64V288c0-11.733,9.6-21.333,21.333-21.333
	s21.333,9.6,21.333,21.333v-96c0-11.733,9.6-21.333,21.333-21.333s21.333,9.6,21.333,21.333v42.667
	c0-11.733,9.6-21.333,21.333-21.333c11.733,0,21.333,9.6,21.333,21.333v42.667C416,265.6,425.6,256,437.333,256
	s21.333,9.6,21.333,21.333V309.333z"/>
<g>
	<circle style="fill:#FED049;" cx="192" cy="202.667" r="42.667"/>
	<circle style="fill:#FED049;" cx="192" cy="53.333" r="42.667"/>
	<circle style="fill:#FED049;" cx="53.333" cy="53.333" r="42.667"/>
</g>
<g>
	<circle style="fill:#D0D7DF;" cx="341.333" cy="53.333" r="42.667"/>
	<circle style="fill:#D0D7DF;" cx="53.333" cy="202.667" r="42.667"/>
	<circle style="fill:#D0D7DF;" cx="53.333" cy="352" r="42.667"/>
	<circle style="fill:#D0D7DF;" cx="192" cy="352" r="42.667"/>
</g>
<path style="fill:#A4B0C0;" d="M480,480v21.333H309.333V480c0-5.867,4.8-10.667,10.667-10.667h21.333h117.333h10.667
	C475.2,469.333,480,474.133,480,480z"/>
<g>
	<path style="fill:#474C54;" d="M480,277.333c-3.755,0-7.317,0.768-10.667,1.963v-1.963c0-17.643-14.357-32-32-32
		c-3.755,0-7.317,0.768-10.667,1.963v-12.629c0-17.643-14.357-32-32-32c-3.755,0-7.317,0.768-10.667,1.963V192
		c0-17.643-14.357-32-32-32c-17.643,0-32,14.357-32,32v65.963c-3.349-1.195-6.912-1.963-10.667-1.963c-17.643,0-32,14.357-32,32
		v106.667c0,1.653,0.384,3.296,1.12,4.768c1.195,2.4,12.448,23.125,52.213,44.395v14.837H320c-11.765,0-21.333,9.568-21.333,21.333
		v21.333c0,5.888,4.779,10.667,10.667,10.667S320,507.221,320,501.333V480h149.333v21.333c0,5.888,4.779,10.667,10.667,10.667
		c5.888,0,10.667-4.779,10.667-10.667V480c0-11.765-9.568-21.333-21.333-21.333v-17.109c21.44-24.117,41.045-72.768,41.909-74.923
		c0.501-1.269,0.757-2.613,0.757-3.968v-53.333C512,291.691,497.643,277.333,480,277.333L480,277.333z M490.667,360.565
		c-3.915,9.397-22.144,51.829-39.541,69.227c-2.005,1.995-3.125,4.715-3.125,7.541v21.333h-96v-21.333
		c0-4.043-2.283-7.733-5.899-9.547c-31.296-15.648-43.893-31.072-47.435-36.149V288c0-5.877,4.789-10.667,10.667-10.667
		c5.877,0,10.667,4.789,10.667,10.667v42.667c0,5.888,4.779,10.667,10.667,10.667s10.667-4.779,10.667-10.667V288v-96
		c0-5.877,4.789-10.667,10.667-10.667c5.877,0,10.667,4.789,10.667,10.667v42.667v42.667c0,5.888,4.779,10.667,10.667,10.667
		S384,283.221,384,277.333v-42.667c0-5.877,4.789-10.667,10.667-10.667s10.667,4.789,10.667,10.667v42.667V320
		c0,5.888,4.779,10.667,10.667,10.667c5.888,0,10.667-4.779,10.667-10.667v-42.667c0-5.877,4.789-10.667,10.667-10.667
		S448,271.456,448,277.333V320v32c0,5.888,4.779,10.667,10.667,10.667c5.888,0,10.667-4.779,10.667-10.667v-32v-10.667
		c0-5.877,4.789-10.667,10.667-10.667s10.667,4.789,10.667,10.667V360.565z"/>
	<path style="fill:#474C54;" d="M53.333,106.667c25.749,0,47.296-18.357,52.256-42.667h34.155
		c4.256,20.864,20.725,37.333,41.589,41.589v44.821c-24.309,4.96-42.667,26.496-42.667,52.256C138.667,232.075,162.592,256,192,256
		c25.749,0,47.296-18.357,52.256-42.667H288c5.888,0,10.667-4.779,10.667-10.667S293.888,192,288,192h-43.744
		c-4.256-20.864-20.725-37.333-41.589-41.589v-44.821c24.309-4.96,42.667-26.507,42.667-52.256C245.333,23.925,221.408,0,192,0
		c-25.749,0-47.296,18.357-52.256,42.667h-34.155C100.629,18.357,79.083,0,53.333,0C23.925,0,0,23.925,0,53.333
		S23.925,106.667,53.333,106.667z M224,202.667c0,17.643-14.357,32-32,32s-32-14.357-32-32s14.357-32,32-32S224,185.024,224,202.667
		z M192,21.333c17.643,0,32,14.357,32,32s-14.357,32-32,32s-32-14.357-32-32S174.357,21.333,192,21.333z M53.333,21.333
		c17.643,0,32,14.357,32,32s-14.357,32-32,32s-32-14.357-32-32S35.691,21.333,53.333,21.333z"/>
	<path style="fill:#474C54;" d="M341.333,106.667c29.408,0,53.333-23.925,53.333-53.333S370.741,0,341.333,0S288,23.925,288,53.333
		S311.925,106.667,341.333,106.667z M341.333,21.333c17.643,0,32,14.357,32,32s-14.357,32-32,32s-32-14.357-32-32
		S323.691,21.333,341.333,21.333z"/>
	<path style="fill:#474C54;" d="M53.333,149.333C23.925,149.333,0,173.259,0,202.667S23.925,256,53.333,256
		s53.333-23.925,53.333-53.333S82.741,149.333,53.333,149.333z M53.333,234.667c-17.643,0-32-14.357-32-32s14.357-32,32-32
		s32,14.357,32,32S70.976,234.667,53.333,234.667z"/>
	<path style="fill:#474C54;" d="M53.333,298.667C23.925,298.667,0,322.592,0,352s23.925,53.333,53.333,53.333
		s53.333-23.925,53.333-53.333S82.741,298.667,53.333,298.667z M53.333,384c-17.643,0-32-14.357-32-32s14.357-32,32-32
		s32,14.357,32,32S70.976,384,53.333,384z"/>
	<path style="fill:#474C54;" d="M192,298.667c-29.408,0-53.333,23.925-53.333,53.333s23.925,53.333,53.333,53.333
		s53.333-23.925,53.333-53.333S221.408,298.667,192,298.667z M192,384c-17.643,0-32-14.357-32-32s14.357-32,32-32s32,14.357,32,32
		S209.643,384,192,384z"/>
</g>
<g>
</g>
<g>
</g>
<g>
</g>
<g>
</g>
<g>
</g>
<g>
</g>
<g>
</g>
<g>
</g>
<g>
</g>
<g>
</g>
<g>
</g>
<g>
</g>
<g>
</g>
<g>
</g>
<g>
</g>
</svg>
