<?xml version="1.0" encoding="iso-8859-1"?>
<!-- Generator: Adobe Illustrator 19.0.0, SVG Export Plug-In . SVG Version: 6.00 Build 0)  -->
<svg version="1.1" id="Capa_1" xmlns="http://www.w3.org/2000/svg" xmlns:xlink="http://www.w3.org/1999/xlink" x="0px" y="0px"
	 viewBox="0 0 384 384" style="enable-background:new 0 0 384 384;" xml:space="preserve">
<circle style="fill:#FF7043;" cx="192" cy="192" r="176"/>
<g>
	<path style="fill:#012E52;" d="M192,0C86.128,0,0,86.128,0,192s86.128,192,192,192s192-86.128,192-192S297.872,0,192,0z M192,352
		c-88.224,0-160-71.776-160-160S103.776,32,192,32s160,71.776,160,160S280.224,352,192,352z"/>
	<path style="fill:#012E52;" d="M248.816,114.696c-7.136-5.224-17.144-3.672-22.36,3.448c-5.224,7.128-3.672,17.144,3.448,22.36
		C246.248,152.48,256,171.728,256,192c0,35.288-28.712,64-64,64s-64-28.712-64-64c0-20.272,9.752-39.52,26.096-51.496
		c7.128-5.224,8.672-15.232,3.448-22.36s-15.224-8.672-22.36-3.448C110.648,132.664,96,161.568,96,192c0,52.936,43.064,96,96,96
		s96-43.064,96-96C288,161.568,273.352,132.664,248.816,114.696z"/>
	<path style="fill:#012E52;" d="M192,216c8.832,0,16-7.168,16-16V88c0-8.832-7.168-16-16-16s-16,7.168-16,16v112
		C176,208.832,183.168,216,192,216z"/>
</g>
<g>
</g>
<g>
</g>
<g>
</g>
<g>
</g>
<g>
</g>
<g>
</g>
<g>
</g>
<g>
</g>
<g>
</g>
<g>
</g>
<g>
</g>
<g>
</g>
<g>
</g>
<g>
</g>
<g>
</g>
</svg>
