<?xml version="1.0" encoding="iso-8859-1"?>
<!-- Generator: Adobe Illustrator 19.0.0, SVG Export Plug-In . SVG Version: 6.00 Build 0)  -->
<svg version="1.1" id="Capa_1" xmlns="http://www.w3.org/2000/svg" xmlns:xlink="http://www.w3.org/1999/xlink" x="0px" y="0px"
	 viewBox="0 0 511.998 511.998" style="enable-background:new 0 0 511.998 511.998;" xml:space="preserve">
<path style="fill:#0099DF;" d="M503.916,397.661c0,16.188-13.122,29.311-29.309,29.311H37.393
	c-16.188,0-29.309-13.124-29.309-29.311V114.336c0-16.188,13.122-29.31,29.309-29.31h437.212c16.188,0,29.309,13.123,29.309,29.31
	v283.326L503.916,397.661L503.916,397.661z"/>
<g style="opacity:0.15;">
	<path style="fill:#202121;" d="M28.922,397.661V114.336c0-16.188,13.124-29.31,29.311-29.31h-20.84
		c-16.187,0-29.309,13.123-29.309,29.31v283.326c0,16.188,13.122,29.311,29.309,29.311h20.84
		C42.047,426.973,28.922,413.849,28.922,397.661z"/>
</g>
<path style="fill:#202121;" d="M474.607,435.057H37.393C16.774,435.057,0,418.282,0,397.661V114.336
	c0-20.619,16.774-37.394,37.393-37.394h437.212c20.619,0,37.393,16.775,37.393,37.394v31.459c0,4.465-3.62,8.084-8.084,8.084
	c-4.466,0-8.084-3.62-8.084-8.084v-31.459c0-11.704-9.522-21.226-21.225-21.226H37.393c-11.703,0-21.225,9.522-21.225,21.226
	v283.326c0,11.705,9.522,21.227,21.225,21.227h437.212c11.703,0,21.225-9.522,21.225-21.227V172.025
	c0-4.465,3.618-8.084,8.084-8.084c4.465,0,8.084,3.62,8.084,8.084v225.637C512,418.282,495.226,435.057,474.607,435.057z"/>
<path style="fill:#EA001B;" d="M332.202,235.253c0-17.459,8.042-33.037,20.622-43.239c-9.56-7.752-21.744-12.401-35.013-12.401
	c-30.729,0-55.637,24.91-55.637,55.64c0,30.729,24.908,55.637,55.637,55.637c13.27,0,25.453-4.647,35.013-12.401
	C340.244,268.289,332.202,252.711,332.202,235.253z"/>
<path style="fill:#F79F1A;" d="M387.839,179.613c-13.271,0-25.451,4.649-35.015,12.401c12.583,10.201,20.627,25.779,20.627,43.239
	c0,17.458-8.043,33.035-20.627,43.235c9.564,7.754,21.745,12.401,35.015,12.401c30.73,0,55.638-24.908,55.638-55.637
	C443.478,204.522,418.569,179.613,387.839,179.613z"/>
<path style="fill:#FF5F01;" d="M373.451,235.253c0-17.459-8.043-33.037-20.627-43.239c-12.58,10.201-20.622,25.779-20.622,43.239
	c0,17.458,8.042,33.035,20.622,43.235C365.407,268.289,373.451,252.711,373.451,235.253z"/>
<path style="fill:#202121;" d="M387.839,171.529c-12.453,0-24.669,3.7-35.015,10.5c-16.647-10.942-37.99-13.497-56.715-6.694
	c-15.574,5.659-28.587,17.466-35.766,32.397c-7.389,15.368-8.246,33.492-2.351,49.494c5.729,15.548,17.592,28.507,32.555,35.619
	c17.434,8.286,38.149,8.073,55.459-0.466c2.35-1.159,4.628-2.463,6.819-3.902c15.024,9.874,33.948,12.988,51.327,8.383
	c14.24-3.774,26.917-12.584,35.499-24.548c8.791-12.257,12.955-27.458,11.682-42.485c-1.262-14.891-7.893-29.048-18.456-39.61
	c-10.49-10.49-24.529-17.107-39.312-18.43C391.662,171.613,389.751,171.529,387.839,171.529z M365.296,237.749
	c-0.569,10.993-5.021,21.562-12.472,29.658c-12.778-13.887-16.081-34.61-8.296-51.805c2.076-4.585,4.888-8.803,8.296-12.506
	C361.433,212.449,365.954,225.055,365.296,237.749z M317.811,282.806c-10.952,0-21.704-3.859-30.163-10.816
	c-8.312-6.837-14.18-16.445-16.385-26.986c-2.272-10.862-0.632-22.386,4.617-32.165c5.056-9.423,13.295-17.01,23.111-21.257
	c11.4-4.932,24.657-5.177,36.22-0.621c1.632,0.643,3.228,1.378,4.778,2.2c-16.119,18.277-20.366,45.11-10.616,67.462
	c2.652,6.078,6.233,11.739,10.616,16.72c0,0,0,0,0.001,0.001C333.216,280.938,325.687,282.806,317.811,282.806z M387.839,282.806
	c-7.875,0-15.404-1.868-22.179-5.462c16.265-18.073,20.296-45.276,10.618-67.461c-2.637-6.045-6.198-11.81-10.618-16.721
	c11.36-6.024,25.065-7.097,37.248-3.016c10.16,3.403,19.008,10.294,24.841,19.276c6.024,9.276,8.62,20.537,7.306,31.518
	c-1.287,10.755-6.341,20.878-14.109,28.419c-7.788,7.561-18.083,12.312-28.901,13.263
	C390.648,282.743,389.244,282.806,387.839,282.806z"/>
<path style="fill:#FFC715;" d="M168.689,261.046c0,3.91-3.171,7.077-7.077,7.077H73.794c-3.91,0-7.077-3.168-7.077-7.077v-68.436
	c0-3.91,3.169-7.076,7.077-7.076h87.818c3.906,0,7.077,3.167,7.077,7.076V261.046z"/>
<g style="opacity:0.15;">
	<path style="fill:#202121;" d="M85.578,261.046v-68.436c0-3.91,3.169-7.076,7.077-7.076H73.793c-3.91,0-7.077,3.167-7.077,7.076
		v68.436c0,3.91,3.169,7.077,7.077,7.077h18.863C88.747,268.124,85.578,264.956,85.578,261.046z"/>
</g>
<g>
	<path style="fill:#202121;" d="M169.658,328.734H66.715c-4.466,0-8.084-3.618-8.084-8.084s3.618-8.084,8.084-8.084h102.943
		c4.466,0,8.084,3.618,8.084,8.084C177.743,325.114,174.124,328.734,169.658,328.734z"/>
	<path style="fill:#202121;" d="M169.658,362.447H66.715c-4.466,0-8.084-3.618-8.084-8.084s3.618-8.084,8.084-8.084h102.943
		c4.466,0,8.084,3.618,8.084,8.084C177.743,358.827,174.124,362.447,169.658,362.447z"/>
	<path style="fill:#202121;" d="M161.612,177.449H73.794c-8.36,0-15.162,6.802-15.162,15.161v68.436
		c0,8.36,6.802,15.162,15.162,15.162h87.818c8.36,0,15.162-6.802,15.162-15.162v-68.436
		C176.774,184.25,169.971,177.449,161.612,177.449z M145.188,221.147h15.417v11.364h-15.417L145.188,221.147L145.188,221.147z
		 M160.605,204.978h-15.417v-11.36h15.417L160.605,204.978L160.605,204.978z M74.8,221.147h19.37v11.364H74.8V221.147z
		 M94.169,193.617v11.36h-19.37v-11.36H94.169z M74.8,248.677h19.37v11.36H74.8V248.677z M110.338,260.039v-66.421h18.682v46.977
		c0,4.465,3.618,8.084,8.084,8.084h23.501v11.36H110.338z"/>
</g>
<g>
</g>
<g>
</g>
<g>
</g>
<g>
</g>
<g>
</g>
<g>
</g>
<g>
</g>
<g>
</g>
<g>
</g>
<g>
</g>
<g>
</g>
<g>
</g>
<g>
</g>
<g>
</g>
<g>
</g>
</svg>
