<svg viewBox="0 1 511 511.999" xmlns="http://www.w3.org/2000/svg"><path d="m304.324219 504.5h-273.046875c-12.855469 0-23.277344-10.421875-23.277344-23.277344v-450.445312c0-12.855469 10.421875-23.277344 23.277344-23.277344h273.046875c12.855469 0 23.277343 10.421875 23.277343 23.277344v450.445312c0 12.855469-10.421874 23.277344-23.277343 23.277344zm0 0" fill="#ffaa16"/><path d="m304.324219 7.5h-31.757813v497h31.757813c12.855469 0 23.277343-10.421875 23.277343-23.277344v-450.445312c0-12.855469-10.421874-23.277344-23.277343-23.277344zm0 0" fill="#ff914d"/><path d="m304.324219 7.5h-273.046875c-12.855469 0-23.277344 10.421875-23.277344 23.277344v33.082031h319.601562v-33.082031c0-12.855469-10.421874-23.277344-23.277343-23.277344zm0 0" fill="#e2ebf9"/><path d="m311.246094 8.546875c-2.1875-.679687-4.511719-1.046875-6.921875-1.046875h-31.757813v56.355469h55.03125v-33.078125c.003906-10.445313-6.878906-19.285156-16.351562-22.230469zm0 0" fill="#c1c8d2"/><path d="m304.324219 504.5h-273.046875c-12.855469 0-23.277344-10.421875-23.277344-23.277344v-33.082031h319.601562v33.082031c0 12.855469-10.421874 23.277344-23.277343 23.277344zm0 0" fill="#0d6e9a"/><path d="m304.324219 504.5h-273.046875c-12.855469 0-23.277344-10.421875-23.277344-23.277344v-33.082031h319.601562v33.082031c0 12.855469-10.421874 23.277344-23.277343 23.277344zm0 0" fill="#e2ebf9"/><path d="m272.570312 504.5h31.753907c12.855469 0 23.277343-10.421875 23.277343-23.277344v-33.078125h-55.03125zm0 0" fill="#c1c8d2"/><path d="m193.464844 28.179688h-51.328125c-4.144531 0-7.5 3.355468-7.5 7.5 0 4.140624 3.359375 7.496093 7.5 7.496093h51.328125c4.140625 0 7.5-3.355469 7.5-7.496093 0-4.144532-3.359375-7.5-7.5-7.5zm0 0" fill="#fff"/><path d="m493.804688 135.011719h-326.003907v241.976562h326.003907c5.585937 0 10.117187-4.53125 10.117187-10.121093v-221.734376c0-5.589843-4.53125-10.121093-10.117187-10.121093zm0 0" fill="#fff"/><path d="m493.804688 135.011719h-44.917969v241.976562h44.917969c5.585937 0 10.117187-4.53125 10.117187-10.121093v-221.734376c0-5.589843-4.53125-10.121093-10.117187-10.121093zm0 0" fill="#e2ebf9"/><path d="m167.800781 171.144531h336.121094v51.960938h-336.121094zm0 0" fill="#00c395"/><path d="m448.886719 171.144531h55.035156v51.960938h-55.035156zm0 0" fill="#00a97d"/><path d="m457.113281 309.039062c0 16.945313-13.738281 30.683594-30.683593 30.683594-16.949219 0-30.6875-13.738281-30.6875-30.683594 0-16.949218 13.738281-30.6875 30.6875-30.6875 16.945312 0 30.683593 13.738282 30.683593 30.6875zm0 0" fill="#ffaa16"/><path d="m417.089844 309.039062c0 16.945313-13.738282 30.683594-30.683594 30.683594-16.949219 0-30.6875-13.738281-30.6875-30.683594 0-16.949218 13.738281-30.6875 30.6875-30.6875 16.945312 0 30.683594 13.738282 30.683594 30.6875zm0 0" fill="#ff8125"/><g fill="#434c54"><path d="m493.804688 127.511719h-318.503907v-4.441407c0-4.144531-3.359375-7.5-7.5-7.5s-7.5 3.355469-7.5 7.5v265.863282c0 4.140625 3.359375 7.5 7.5 7.5s7.5-3.359375 7.5-7.5v-4.445313h318.503907c9.714843 0 17.617187-7.902343 17.617187-17.617187v-221.738282c0-9.71875-7.90625-17.621093-17.617187-17.621093zm2.617187 239.355469c0 1.445312-1.175781 2.621093-2.617187 2.621093h-318.503907v-226.976562h318.503907c1.441406 0 2.617187 1.175781 2.617187 2.621093zm0 0"/><path d="m327.601562 404.34375c-4.144531 0-7.5 3.355469-7.5 7.5v69.378906c0 8.699219-7.078124 15.777344-15.777343 15.777344h-273.046875c-8.699219 0-15.777344-7.078125-15.777344-15.777344v-450.445312c0-8.699219 7.078125-15.777344 15.777344-15.777344h273.046875c8.699219 0 15.777343 7.078125 15.777343 15.777344v69.175781c0 4.144531 3.355469 7.5 7.5 7.5 4.140626 0 7.5-3.355469 7.5-7.5v-69.175781c0-16.96875-13.808593-30.777344-30.777343-30.777344h-273.046875c-16.972656 0-30.777344 13.808594-30.777344 30.777344v450.445312c0 16.96875 13.804688 30.777344 30.777344 30.777344h273.046875c16.96875 0 30.773437-13.808594 30.773437-30.777344v-69.382812c.003906-4.140625-3.355468-7.496094-7.496094-7.496094zm0 0"/></g></svg>