<svg height="512pt" viewBox="0 -94 512 512" width="512pt" xmlns="http://www.w3.org/2000/svg"><path d="m478.714844 0h-445.429688c-18.382812 0-33.285156 14.902344-33.285156 33.285156v257.183594c0 18.382812 14.902344 33.285156 33.285156 33.285156h445.425782c18.382812 0 33.285156-14.902344 33.285156-33.285156v-257.183594c.003906-18.382812-14.898438-33.285156-33.28125-33.285156zm0 0" fill="#ffeead"/><path d="m506.816406 15.503906-497.640625 297.871094c6.0625 6.378906 14.613281 10.382812 24.109375 10.382812h445.425782c18.382812 0 33.285156-14.902343 33.285156-33.285156v-257.1875c.003906-6.550781-1.914063-12.636718-5.179688-17.78125zm0 0" fill="#d3c089"/><path d="m0 40.246094h512v61.9375h-512zm0 0" fill="#99734a"/><path d="m465.480469 40.246094-103.472657 61.9375h149.992188v-61.9375zm0 0" fill="#825e3b"/><path d="m117.96875 137.523438c-.800781-7.25-4.769531-12.671876-11.335938-16.050782-4.785156-2.460937-9.941406-3.46875-15.257812-3.789062-7.03125-.421875-14.078125-.171875-20.121094-.238282-4.835937 0-8.679687-.011718-12.515625.003907-2.1875.007812-4.382812-.0625-6.554687.125-3.25.277343-4.738282 1.765625-5.253906 4.992187-1.308594 8.210938-2.589844 16.425782-3.886719 24.640625-3.378907 21.429688-6.753907 42.855469-10.136719 64.285157-.449219 2.84375.734375 4.3125 3.578125 4.316406 5.066406.015625 10.140625.011718 15.207031.007812 3.964844 0 5.59375-1.445312 6.199219-5.351562 1.171875-7.589844 2.363281-15.171875 3.566406-22.753906.464844-2.929688 2.269531-4.511719 5.257813-4.554688 3.84375-.046875 7.683594-.042969 11.523437-.007812 3.535157.03125 7.035157-.304688 10.488281-1.003907 8.023438-1.617187 15.164063-4.960937 20.296876-11.527343 7.605468-9.71875 10.28125-20.972657 8.945312-33.09375zm-29.195312 20.136718c-2.261719 3.292969-5.652344 4.53125-9.382813 5.167969-2.488281.429687-4.996094.339844-7.496094.375-1.597656-.003906-3.207031-.089844-4.800781.019531-1.433594.097656-1.726562-.460937-1.507812-1.765625.828124-4.9375 1.59375-9.886719 2.386718-14.828125.347656-2.160156.660156-4.320312 1.058594-6.464844.351562-1.910156 1.257812-2.726562 3.128906-2.773437 3.839844-.097656 7.679688-.027344 11.476563.601563 5.71875.941406 8.550781 4.847656 7.894531 10.597656-.363281 3.214844-.886719 6.335937-2.757812 9.070312zm0 0" fill="#71a58a"/><path d="m304.332031 117.6875c-3.136719 0-4.898437 1.5625-5.402343 4.738281-.667969 4.160157-1.3125 8.320313-1.964844 12.484375-.359375 2.285156-.722656 4.570313-1.082032 6.855469l40.132813-24.019531c-10.566406-.066406-21.121094-.0625-31.683594-.058594zm0 0" fill="#ff6f69"/><path d="m192.707031 150.191406c-5.492187-.140625-10.992187-.117187-16.480469-.007812-2.035156.042968-2.835937 1.015625-3.304687 3.058594-.257813 1.128906-.171875 2.332031-.804687 3.660156-2.222657-3.535156-5.296876-5.546875-8.980469-6.664063-6.191407-1.878906-12.53125-2.15625-18.835938-.929687-23.066406 4.492187-34.488281 28.007812-30.792969 46.375 1.820313 9.039062 6.421876 16.347656 15.402344 19.617187 11.699219 4.261719 22.777344 2.542969 32.832032-4.976562.703124-.523438 1.367187-1.097657 2.171874-1.753907.28125 1.195313-.097656 2.0625-.207031 2.945313-.375 3.039063.683594 4.300781 3.730469 4.304687 1.570312.003907 3.148438 0 4.71875 0l15.488281-9.273437c1.558594-9.765625 3.117188-19.527344 4.664063-29.292969 1.214844-7.6875 2.441406-15.371094 3.582031-23.070312.367187-2.460938-.742187-3.9375-3.183594-3.992188zm-35.515625 47.816406c-3.878906 1.492188-7.929687 1.632813-11.9375.546876-5.816406-1.582032-9.015625-6.152344-8.980468-12.605469.0625-12.238281 10.453124-20.90625 22.523437-18.785157 6.703125 1.175782 11.214844 6.902344 10.640625 14.007813-.652344 8.011719-4.574219 13.878906-12.246094 16.835937zm0 0" fill="#71a58a"/><path d="m229.058594 154.769531c-.773438-2.625-2.261719-4.441406-5.074219-4.566406-5.542969-.246094-11.089844-.164063-16.636719-.027344-.367187.007813-.746094.105469-1.097656.222657-1.484375.496093-2.375 2.003906-2.046875 3.535156.15625.726562.425781 1.429687.667969 2.136718 3.789062 11.117188 7.59375 22.230469 11.394531 33.339844l19.628906-11.75c-2.289062-7.621094-4.585937-15.246094-6.835937-22.890625zm0 0" fill="#71a58a"/><path d="m281.480469 150.089844c-4.324219.007812-8.652344.136718-12.964844-.039063-3.558594-.140625-6.003906 1.113281-7.980469 4.164063-3.195312 4.921875-6.539062 9.75-9.851562 14.597656l31.238281-18.699219c-.144531-.003906-.289063-.023437-.441406-.023437zm0 0" fill="#71a58a"/><g fill="#d3c089"><path d="m410.746094 167.144531c-12.066406-2.167969-22.609375 6.609375-22.742188 18.863281-.066406 6.023438 3.355469 10.933594 8.816406 12.503907 3.117188.902343 6.296876 1.035156 9.492188.355469 8.457031-1.8125 13.824219-7.664063 14.992188-16.941407.914062-7.28125-3.167969-13.457031-10.558594-14.78125zm0 0"/><path d="m235.894531 177.667969c.699219 2.332031 1.394531 4.671875 2.09375 7.003906.148438.503906.335938.996094.648438 1.894531 2.316406-3.386718 4.417969-6.453125 6.503906-9.535156 1.855469-2.734375 3.683594-5.488281 5.546875-8.21875zm0 0"/><path d="m335.472656 137.929688c-3.691406-.679688-7.433594-.640626-11.167968-.59375-2.023438.03125-3.101563.867187-3.425782 2.867187-1.183594 7.207031-2.273437 14.433594-3.457031 21.640625-.195313 1.1875.320313 1.394531 1.285156 1.382812 1.707031-.019531 3.417969-.003906 5.570313-.003906 2.058594-.027344 4.570312.078125 7.058594-.359375 3.664062-.640625 7.050781-1.792969 9.296874-5.027343 2.113282-3.054688 2.800782-6.519532 2.820313-10.171876.03125-5.832031-2.269531-8.691406-7.980469-9.734374zm0 0"/></g><path d="m369.917969 138.007812c-.703125-7.238281-4.457031-12.789062-11-16.273437-5.003907-2.660156-10.410157-3.921875-16.007813-3.980469-2.296875-.023437-4.597656 0-6.894531-.007812l-40.132813 24.019531c-2.382812 15.097656-4.769531 30.191406-7.152343 45.289063-1.28125 8.109374-2.5625 16.222656-3.832031 24.335937-.480469 3.058594.6875 4.394531 3.8125 4.398437 5.390624.003907 10.777343.003907 16.167968 0 3.175782-.003906 4.171875-.882812 4.667969-4.003906 1.273437-8.058594 2.554687-16.117187 3.847656-24.171875.457031-2.84375 2.269531-4.429687 5.152344-4.480469 2.453125-.046874 4.914063-.011718 8.554687-.011718 3.726563.125 8.628907.015625 13.46875-.972656 8.066407-1.652344 15.269532-4.992188 20.417969-11.628907 7.40625-9.570312 10.085938-20.613281 8.929688-32.511719zm-29.28125 19.828126c-2.246094 3.238281-5.632813 4.386718-9.296875 5.027343-2.488282.4375-5 .332031-7.058594.359375-2.152344 0-3.863281-.015625-5.566406.003906-.96875.011719-1.484375-.191406-1.289063-1.382812 1.179688-7.207031 2.277344-14.429688 3.457031-21.640625.324219-2 1.402344-2.839844 3.425782-2.867187 3.738281-.054688 7.476562-.089844 11.167968.59375 5.710938 1.042968 8.011719 3.902343 7.980469 9.734374-.019531 3.652344-.707031 7.117188-2.820312 10.171876zm0 0" fill="#e05858"/><path d="m172.15625 215.820312c3.015625 0 6.03125.003907 9.046875 0 3.46875-.011718 5.203125-1.507812 5.75-4.921874.230469-1.449219.457031-2.898438.6875-4.347657zm0 0" fill="#639376"/><path d="m443.480469 150.132812c-3.789063-.050781-7.578125-.023437-11.367188-.011718-1.328125.007812-2.675781-.03125-3.992187.125-2.097656.25-2.761719.921875-3.1875 2.976562-.242188 1.144532-.414063 2.296875-.671875 3.785156-.402344-.429687-.605469-.597656-.746094-.808593-1.980469-2.996094-4.875-4.726563-8.195313-5.804688-6.335937-2.046875-12.820312-2.238281-19.289062-.992187-8.933594 1.71875-16.335938 6.238281-21.914062 13.410156-8.273438 10.625-11.464844 22.566406-7.875 35.78125 1.953124 7.195312 6.117187 13.082031 13.167968 16.042969 12.164063 5.101562 23.667969 3.433593 34.300782-4.351563.707031-.515625 1.371093-1.859375 2.050781-1.445312.820312.496094.023437 1.757812-.09375 2.664062-.378907 3 .675781 4.28125 3.75 4.285156 4.480469.007813 8.960937.007813 13.445312.003907 3.761719-.003907 5.460938-1.472657 6.046875-5.164063 2.917969-18.488281 5.835938-36.972656 8.769532-55.453125.574218-3.605469-.527344-5-4.199219-5.042969zm-22.179688 31.789063c-1.167969 9.277344-6.535156 15.125-14.992187 16.9375-3.195313.6875-6.371094.550781-9.492188-.351563-5.460937-1.570312-8.886718-6.480468-8.816406-12.503906.132812-12.253906 10.675781-21.03125 22.738281-18.863281 7.398438 1.328125 11.480469 7.503906 10.5625 14.78125zm0 0" fill="#e05858"/><path d="m284.308594 150.527344c-.753906-.335938-1.570313-.394532-2.382813-.414063l-31.238281 18.699219c-1.863281 2.730469-3.691406 5.484375-5.546875 8.21875-2.085937 3.078125-4.195313 6.148438-6.503906 9.535156-.3125-.902344-.5-1.390625-.648438-1.894531-.699219-2.332031-1.390625-4.671875-2.09375-7.003906l-19.628906 11.75c2.050781 5.996093 4.085937 12 6.148437 17.992187.433594 1.261719.261719 2.140625-.5 3.203125-5.441406 7.59375-10.8125 15.226563-16.203124 22.851563-.773438 1.09375-1.28125 2.246094-.527344 3.5625.730468 1.292968 1.882812 1.800781 3.339844 1.796875 5.277343-.015625 10.5625 0 15.84375-.007813 2.128906-.007812 3.761718-.871094 4.988281-2.660156 3.519531-5.152344 7.097656-10.265625 10.65625-15.394531 11.675781-16.835938 23.347656-33.667969 35.019531-50.507813 3.433594-4.953125 6.875-9.90625 10.28125-14.878906 1.324219-1.929688.867188-4.015625-1.003906-4.847656zm0 0" fill="#639376"/><path d="m482.535156 117.46875c-4.480468-.042969-8.960937-.039062-13.441406 0-3.089844.027344-4.089844.90625-4.578125 3.9375-1.011719 6.316406-1.984375 12.636719-2.980469 18.953125-2.636718 16.738281-5.277344 33.480469-7.90625 50.226563-1.109375 7.050781-2.246094 14.101562-3.28125 21.167968-.410156 2.800782.730469 4.007813 3.511719 4.023438 2.238281.015625 4.480469.007812 6.71875.007812 2.132813 0 4.265625.003906 6.398437 0 3.679688-.011718 5.285157-1.296875 5.867188-4.9375 1.863281-11.628906 3.675781-23.269531 5.519531-34.902344 2.820313-17.789062 5.65625-35.578124 8.472657-53.371093.589843-3.707031-.542969-5.066407-4.300782-5.105469zm0 0" fill="#e05858"/><path d="m233.394531 260.753906h-167.335937c-2.101563 0-3.824219 1.722656-3.824219 3.824219v.503906c0 2.101563 1.722656 3.824219 3.824219 3.824219h167.34375c2.101562 0 3.824218-1.722656 3.824218-3.824219v-.503906c-.003906-2.105469-1.722656-3.824219-3.832031-3.824219zm0 0" fill="#99734a"/><path d="m233.394531 281.621094h-167.335937c-2.101563 0-3.824219 1.71875-3.824219 3.824218v.507813c0 2.101563 1.722656 3.824219 3.824219 3.824219h167.34375c2.101562 0 3.824218-1.71875 3.824218-3.824219v-.507813c-.003906-2.105468-1.722656-3.824218-3.832031-3.824218zm0 0" fill="#99734a"/><path d="m233.394531 260.753906h-136.304687l-13.625 8.15625h149.929687c2.101563 0 3.828125-1.722656 3.828125-3.824218v-.503907c0-2.109375-1.71875-3.828125-3.828125-3.828125zm0 0" fill="#825e3b"/><path d="m233.394531 281.621094h-167.335937c-2.101563 0-3.824219 1.71875-3.824219 3.824218v.507813c0 2.101563 1.722656 3.824219 3.824219 3.824219h167.34375c2.101562 0 3.824218-1.71875 3.824218-3.824219v-.507813c-.003906-2.105468-1.722656-3.824218-3.832031-3.824218zm0 0" fill="#825e3b"/><path d="m412.675781 265.058594c0 12.019531-9.742187 21.765625-21.761719 21.765625-12.019531 0-21.761718-9.746094-21.761718-21.765625 0-12.015625 9.742187-21.761719 21.761718-21.761719 12.019532 0 21.761719 9.746094 21.761719 21.761719zm0 0" fill="#e05858"/><path d="m440.925781 265.058594c0 12.019531-9.742187 21.765625-21.761719 21.765625-12.019531 0-21.761718-9.746094-21.761718-21.765625 0-12.015625 9.742187-21.761719 21.761718-21.761719 12.019532 0 21.761719 9.746094 21.761719 21.761719zm0 0" fill="#ffeead"/></svg>