<svg height="496pt" viewBox="0 0 496 496" width="496pt" xmlns="http://www.w3.org/2000/svg"><path d="m152 440h192v48h-192zm0 0" fill="#838f9b"/><path d="m40 440c-17.679688 0-32-14.320312-32-32v-32h104l24 16h352v16c0 17.679688-14.320312 32-32 32zm0 0" fill="#969faa"/><path d="m283.359375 152c3.039063-10.160156 4.640625-20.878906 4.640625-32h168c17.679688 0 32 14.320312 32 32v240h-352l-24-16h-104v-224c0-17.679688 14.320312-32 32-32h24c0 61.839844 50.160156 112 112 112 50.71875 0 93.601562-33.761719 107.359375-80zm0 0" fill="#69d6f4"/><path d="m312 280h144v80h-144zm0 0" fill="#b4dd7f"/><path d="m312 152h144v96h-144zm0 0" fill="#ffeaa7"/><path d="m283.359375 152c-13.757813 46.238281-56.640625 80-107.359375 80-61.839844 0-112-50.160156-112-112s50.160156-112 112-112 112 50.160156 112 112c0 11.121094-1.601562 21.839844-4.640625 32zm0 0" fill="#fcd770"/><path d="m248 168v16h-144v-16c0-14.238281 9.441406-26.71875 23.039062-30.558594l32.960938-9.441406v-12.398438c-9.519531-5.601562-16-15.761718-16-27.601562v-16c0-18.640625 15.921875-33.519531 34.878906-31.839844 16.800782 1.441406 29.121094 16.640625 29.121094 33.519532v14.320312c0 11.839844-6.480469 22-16 27.601562v12.398438l32.960938 9.441406c13.597656 3.839844 23.039062 16.320313 23.039062 30.558594zm0 0" fill="#e6e9ed"/><path d="m96 400h16v16h-16zm0 0"/><path d="m64 400h16v16h-16zm0 0"/><path d="m32 400h16v16h-16zm0 0"/><path d="m456 112h-160.40625c-4.144531-62.441406-56.121094-112-119.59375-112-56.007812 0-105.3125 39.65625-117.230469 94.296875l15.621094 3.414063c10.335937-47.351563 53.074219-81.710938 101.609375-81.710938 57.34375 0 104 46.65625 104 104 0 10.136719-1.449219 20.128906-4.304688 29.710938l-3.070312 10.289062h175.375v80h-128v-64h-16v80h160v-112h-170.398438c1.0625-5.257812 1.644532-10.617188 2-16h160.398438c13.230469 0 24 10.769531 24 24v232h-341.574219l-24-16h-98.425781v-216c0-13.230469 10.769531-24 24-24h16.265625c4.132813 62.449219 56.253906 112 119.734375 112 42.558594 0 82.320312-22.871094 103.769531-59.6875l-13.832031-8.054688c-2.921875 5.023438-6.28125 9.703126-9.9375 14.09375v-18.351562c0-17.6875-11.871094-33.433594-28.878906-38.289062l-27.121094-7.742188v-2.128906c9.96875-7.511719 16-19.328125 16-31.832032v-14.335937c0-21.503906-16.007812-39.726563-36.441406-41.503906-11.222656-1-22.351563 2.800781-30.589844 10.351562-8.242188 7.550781-12.96875 18.296875-12.96875 29.480469v16c0 12.503906 6.03125 24.328125 16 31.832031v2.128907l-27.121094 7.75c-17.007812 4.855468-28.878906 20.601562-28.878906 38.289062v18.359375c-14.976562-18.023437-24-41.152344-24-66.359375v-8h-32c-22.054688 0-40 17.945312-40 40v256c0 22.054688 17.945312 40 40 40h104v32h-32v16h272v-16h-32v-32h104c22.054688 0 40-17.945312 40-40v-256c0-22.054688-17.945312-40-40-40zm-344 56c0-10.574219 7.105469-20 17.273438-22.902344l38.726562-11.066406v-23.070312l-3.976562-2.3125c-7.527344-4.382813-12.023438-12.105469-12.023438-20.648438v-16c0-6.710938 2.832031-13.160156 7.792969-17.695312 5.015625-4.59375 11.550781-6.800782 18.382812-6.207032 12.238281 1.0625 21.824219 12.285156 21.824219 25.566406v14.335938c0 8.542969-4.496094 16.265625-12.023438 20.648438l-3.976562 2.3125v23.070312l38.726562 11.066406c10.167969 2.902344 17.273438 12.328125 17.273438 22.902344v8h-128zm138.945312 24c-19.402343 20.121094-46.433593 32-74.945312 32-29.398438 0-55.9375-12.320312-74.871094-32zm205.054688 240h-280v16h160v32h-176v-48h-120c-13.230469 0-24-10.769531-24-24v-24h93.574219l24 16h346.425781v8c0 13.230469-10.769531 24-24 24zm0 0"/><path d="m304 272v96h160v-96zm144 80h-128v-64h128zm0 0"/><path d="m336 176h16v16h-16zm0 0"/><path d="m368 176h64v16h-64zm0 0"/><path d="m336 208h96v16h-96zm0 0"/><path d="m32 336h16v16h-16zm0 0"/><path d="m64 336h128v16h-128zm0 0"/><path d="m32 304h16v16h-16zm0 0"/><path d="m64 304h128v16h-128zm0 0"/><path d="m32 272h16v16h-16zm0 0"/><path d="m64 272h128v16h-128zm0 0"/></svg>