<?xml version="1.0" encoding="iso-8859-1"?>
<!-- Generator: Adobe Illustrator 19.0.0, SVG Export Plug-In . SVG Version: 6.00 Build 0)  -->
<svg version="1.1" id="Capa_1" xmlns="http://www.w3.org/2000/svg" xmlns:xlink="http://www.w3.org/1999/xlink" x="0px" y="0px"
	 viewBox="0 0 512 512" style="enable-background:new 0 0 512 512;" xml:space="preserve">
<path style="fill:#61DE56;" d="M416.666,0H95.334C42.767,0,0,42.767,0,95.334v321.332C0,469.233,42.767,512,95.334,512h321.332
	C469.233,512,512,469.233,512,416.666V95.334C512,42.767,469.233,0,416.666,0z"/>
<path style="fill:#13C37B;" d="M416.667,0H256v512h160.667C469.234,512,512,469.233,512,416.666V95.334
	C512,42.767,469.234,0,416.667,0z"/>
<g>
	<path style="fill:#F2F2F2;" d="M393.939,209.27c-2.653-7.849-11.166-12.061-19.014-9.406c-7.848,2.652-12.06,11.165-9.406,19.014
		c14.195,41.995,3.555,87.543-27.77,118.869c-21.836,21.837-50.868,33.862-81.748,33.862c-14.988,0-29.538-2.842-43.044-8.254h2.933
		c0.001,0,0.001,0,0.001,0c8.283,0,15-6.716,15-14.999c0-8.285-6.715-15.001-14.999-15.001l-52.246-0.002h-0.001
		c-0.095,0-0.188,0.012-0.283,0.014c-0.393,0.008-0.785,0.021-1.176,0.059c-0.161,0.016-0.319,0.049-0.48,0.069
		c-0.325,0.042-0.651,0.081-0.974,0.146c-0.131,0.025-0.258,0.065-0.388,0.094c-0.349,0.079-0.696,0.158-1.04,0.262
		c-0.094,0.028-0.184,0.066-0.277,0.098c-0.372,0.119-0.743,0.246-1.107,0.396c-0.067,0.027-0.132,0.063-0.198,0.092
		c-0.381,0.164-0.759,0.336-1.127,0.533c-0.07,0.037-0.137,0.082-0.206,0.121c-0.356,0.197-0.709,0.4-1.052,0.629
		c-0.13,0.087-0.251,0.188-0.379,0.279c-0.271,0.193-0.544,0.382-0.805,0.596c-0.386,0.315-0.759,0.65-1.114,1.007
		c-0.355,0.354-0.689,0.727-1.005,1.111c-0.248,0.302-0.471,0.617-0.69,0.934c-0.06,0.085-0.126,0.163-0.184,0.249
		c-0.255,0.383-0.486,0.775-0.703,1.176c-0.015,0.026-0.032,0.051-0.047,0.078c-0.217,0.408-0.411,0.824-0.588,1.245
		c-0.012,0.026-0.026,0.053-0.037,0.079c-0.167,0.406-0.311,0.817-0.441,1.232c-0.016,0.052-0.037,0.1-0.053,0.152
		c-0.117,0.389-0.211,0.782-0.296,1.178c-0.018,0.084-0.045,0.166-0.061,0.25c-0.075,0.383-0.127,0.77-0.173,1.158
		c-0.012,0.099-0.033,0.196-0.043,0.297c-0.048,0.489-0.072,0.98-0.072,1.472l0.002,52.242c0,8.284,6.716,14.999,15.001,14.999
		c8.284,0,14.999-6.716,14.999-15.001l-0.001-21.18c22.959,14.451,49.562,22.19,77.356,22.19c38.893,0,75.459-15.147,102.961-42.649
		c19.563-19.564,33.089-44.115,39.113-70.995C403.934,261.82,402.503,234.608,393.939,209.27z"/>
	<path style="fill:#F2F2F2;" d="M174.251,174.251c21.837-21.836,50.869-33.862,81.75-33.862c14.99,0,29.542,2.842,43.049,8.256
		h-2.936c-8.284,0-15,6.716-15,15s6.716,15,15,15h52.236c0.496,0,0.993-0.025,1.487-0.074c0.217-0.021,0.427-0.063,0.642-0.094
		c0.27-0.038,0.54-0.07,0.809-0.123c0.25-0.049,0.492-0.118,0.737-0.18c0.228-0.058,0.459-0.107,0.686-0.176
		c0.242-0.074,0.477-0.165,0.714-0.25c0.225-0.08,0.45-0.154,0.671-0.246c0.223-0.092,0.437-0.201,0.654-0.304
		c0.226-0.106,0.454-0.206,0.676-0.325c0.21-0.112,0.409-0.24,0.613-0.362c0.216-0.13,0.435-0.251,0.645-0.392
		c0.23-0.154,0.446-0.324,0.666-0.49c0.171-0.128,0.346-0.246,0.512-0.383c0.766-0.628,1.468-1.33,2.097-2.096
		c0.139-0.168,0.258-0.346,0.389-0.52c0.163-0.218,0.332-0.432,0.483-0.658c0.143-0.213,0.266-0.434,0.396-0.651
		c0.121-0.202,0.248-0.399,0.358-0.607c0.12-0.224,0.222-0.454,0.329-0.682c0.102-0.216,0.209-0.428,0.301-0.648
		c0.092-0.223,0.167-0.451,0.248-0.677c0.084-0.235,0.174-0.468,0.247-0.708c0.069-0.229,0.12-0.461,0.178-0.691
		c0.062-0.244,0.13-0.483,0.179-0.73c0.054-0.27,0.086-0.543,0.124-0.814c0.03-0.213,0.071-0.422,0.092-0.637
		c0.049-0.494,0.075-0.99,0.075-1.487l0.002-52.238c0-8.285-6.715-15.001-14.999-15.001h-0.001c-8.283,0-15,6.716-15,14.999
		l-0.001,21.181c-22.958-14.451-49.562-22.191-77.355-22.191c-38.895,0-75.46,15.146-102.963,42.649
		c-19.564,19.564-33.089,44.115-39.113,70.998c-5.858,26.144-4.428,53.355,4.137,78.694c2.114,6.256,7.952,10.201,14.208,10.201
		c1.593,0,3.213-0.256,4.805-0.794c7.849-2.652,12.061-11.165,9.407-19.013C132.286,251.127,142.927,205.577,174.251,174.251z"/>
</g>
<g>
	<path style="fill:#D9D9D9;" d="M393.939,209.27c-2.653-7.849-11.166-12.061-19.014-9.406c-7.848,2.652-12.06,11.165-9.406,19.014
		c14.195,41.995,3.555,87.543-27.77,118.869c-21.836,21.837-50.868,33.862-81.748,33.862H256v30h0.001
		c38.893,0,75.459-15.147,102.961-42.649c19.563-19.564,33.089-44.115,39.113-70.995C403.934,261.82,402.503,234.608,393.939,209.27
		z"/>
	<path style="fill:#D9D9D9;" d="M299.05,148.645h-2.936c-8.284,0-15,6.716-15,15s6.716,15,15,15h52.236
		c0.496,0,0.993-0.025,1.487-0.074c0.217-0.021,0.427-0.063,0.642-0.094c0.27-0.038,0.54-0.07,0.809-0.123
		c0.25-0.049,0.492-0.118,0.737-0.18c0.228-0.058,0.459-0.107,0.686-0.176c0.242-0.074,0.477-0.165,0.714-0.25
		c0.225-0.08,0.45-0.154,0.671-0.246c0.223-0.092,0.437-0.201,0.654-0.304c0.226-0.106,0.454-0.206,0.676-0.325
		c0.21-0.112,0.409-0.24,0.613-0.362c0.216-0.13,0.435-0.251,0.645-0.392c0.23-0.154,0.446-0.324,0.666-0.49
		c0.171-0.128,0.346-0.246,0.512-0.383c0.766-0.628,1.468-1.33,2.097-2.096c0.139-0.168,0.258-0.346,0.389-0.52
		c0.163-0.218,0.332-0.432,0.483-0.658c0.143-0.213,0.266-0.434,0.396-0.651c0.121-0.202,0.248-0.399,0.358-0.607
		c0.12-0.224,0.222-0.454,0.329-0.682c0.102-0.216,0.209-0.428,0.301-0.648c0.092-0.223,0.167-0.451,0.248-0.677
		c0.084-0.235,0.174-0.468,0.247-0.708c0.069-0.229,0.12-0.461,0.178-0.691c0.062-0.244,0.13-0.483,0.179-0.73
		c0.054-0.27,0.086-0.543,0.124-0.814c0.03-0.213,0.071-0.422,0.092-0.637c0.049-0.494,0.075-0.99,0.075-1.487l0.002-52.238
		c0-8.285-6.715-15.001-14.999-15.001h-0.001c-8.283,0-15,6.716-15,14.999l-0.001,21.181
		c-22.958-14.451-49.562-22.191-77.355-22.191H256v30h0.001C270.991,140.389,285.543,143.23,299.05,148.645z"/>
</g>
<g>
</g>
<g>
</g>
<g>
</g>
<g>
</g>
<g>
</g>
<g>
</g>
<g>
</g>
<g>
</g>
<g>
</g>
<g>
</g>
<g>
</g>
<g>
</g>
<g>
</g>
<g>
</g>
<g>
</g>
</svg>
