<svg height="512pt" viewBox="0 -1 512 512" width="512pt" xmlns="http://www.w3.org/2000/svg"><path d="m148.339844 503.453125h-46.109375v-63.480469c0-12.734375 10.324219-23.054687 23.054687-23.054687 12.734375 0 23.054688 10.324219 23.054688 23.054687zm0 0" fill="#cac0c9"/><path d="m409.769531 503.453125h-46.109375v-63.480469c0-12.734375 10.320313-23.054687 23.054688-23.054687 12.730468 0 23.054687 10.324219 23.054687 23.054687zm0 0" fill="#cac0c9"/><path d="m102.230469 476.453125h46.109375v27h-46.109375zm0 0" fill="#bbb0ba"/><path d="m363.660156 476.453125h46.109375v27h-46.109375zm0 0" fill="#bbb0ba"/><path d="m148.339844 416.917969h215.320312v86.535156h-215.320312zm0 0" fill="#e6e2e6"/><path d="m148.339844 476.453125h215.320312v27h-215.320312zm0 0" fill="#d8d1d7"/><path d="m221.058594 387.96875h69.882812v28.949219h-69.882812zm0 0" fill="#9c8f9a"/><path d="m349.246094 302.539062c-6.046875 0-11.644532 1.925782-16.222656 5.191407v45.585937c4.578124 3.261719 10.175781 5.1875 16.222656 5.1875 15.457031 0 27.984375-12.527344 27.984375-27.980468 0-15.453126-12.527344-27.984376-27.984375-27.984376zm0 0" fill="#cac0c9"/><path d="m178.976562 307.730469c-4.578124-3.265625-10.175781-5.191407-16.222656-5.191407-15.457031 0-27.984375 12.53125-27.984375 27.984376 0 15.453124 12.527344 27.980468 27.984375 27.980468 6.046875 0 11.644532-1.925781 16.222656-5.1875zm0 0" fill="#cac0c9"/><path d="m349.246094 334.929688c-6.046875 0-11.644532-1.925782-16.222656-5.1875v23.574218c4.578124 3.261719 10.175781 5.1875 16.222656 5.1875 15.457031 0 27.984375-12.527344 27.984375-27.980468 0-4.214844-.9375-8.207032-2.605469-11.789063-4.445312 9.566406-14.136719 16.195313-25.378906 16.195313zm0 0" fill="#bbb0ba"/><path d="m137.375 318.734375c-1.667969 3.585937-2.605469 7.574219-2.605469 11.789063 0 15.453124 12.527344 27.980468 27.984375 27.980468 6.046875 0 11.644532-1.925781 16.222656-5.1875v-23.574218c-4.578124 3.261718-10.175781 5.1875-16.222656 5.1875-11.242187 0-20.929687-6.628907-25.378906-16.195313zm0 0" fill="#bbb0ba"/><path d="m279.621094 223.53125c0 13.046875-10.574219 23.621094-23.621094 23.621094s-23.621094-10.574219-23.621094-23.621094 10.574219-23.625 23.621094-23.625 23.621094 10.578125 23.621094 23.625zm0 0" fill="#ff4755"/><path d="m256 229.152344c-9.859375 0-18.304688-6.039063-21.84375-14.621094-1.144531 2.773438-1.78125 5.8125-1.78125 9 0 13.046875 10.578125 23.621094 23.625 23.621094s23.621094-10.574219 23.621094-23.621094c0-3.1875-.632813-6.226562-1.78125-9-3.535156 8.582031-11.980469 14.621094-21.839844 14.621094zm0 0" fill="#fc2b3a"/><path d="m318.023438 387.96875h-124.046876c-8.285156 0-15-6.71875-15-15v-84.890625c0-8.28125 6.714844-15 15-15h124.046876c8.285156 0 15 6.71875 15 15v84.890625c0 8.28125-6.714844 15-15 15zm0 0" fill="#e6e2e6"/><path d="m318.023438 360.964844h-124.046876c-8.285156 0-15-6.714844-15-15v27.003906c0 8.28125 6.714844 15 15 15h124.046876c8.285156 0 15-6.71875 15-15v-27.003906c0 8.285156-6.714844 15-15 15zm0 0" fill="#d8d1d7"/><path d="m397.796875 7.5c-58.929687 0-106.699219 39.902344-106.699219 89.121094 0 26.804687 14.167969 50.84375 36.585938 67.179687l.015625-.023437-13.085938 30.460937c-2.257812 5.257813 1.773438 11.195313 7.085938 10.367188 33.792969-5.253907 52.960937-20.882813 53.046875-20.957031 7.425781 1.367187 15.136718 2.089843 23.050781 2.089843 58.929687 0 106.703125-39.898437 106.703125-89.117187s-47.773438-89.121094-106.703125-89.121094zm0 0" fill="#ff4755"/><path d="m184.304688 163.777344.011718.023437c22.421875-16.335937 36.589844-40.375 36.589844-67.179687 0-49.21875-47.773438-89.121094-106.703125-89.121094s-106.703125 39.902344-106.703125 89.121094 47.773438 89.117187 106.703125 89.117187c7.914063 0 15.625-.722656 23.050781-2.089843.085938.074218 19.253906 15.703124 53.046875 20.957031 5.3125.828125 9.34375-5.109375 7.085938-10.367188zm0 0" fill="#82d361"/><path d="m220.902344 96.621094c0-3.847656-.289063-7.632813-.855469-11.351563-6.675781 43.859375-51.519531 77.769531-105.84375 77.769531s-99.167969-33.910156-105.84375-77.769531c-.566406 3.71875-.859375 7.507813-.859375 11.351563 0 49.21875 47.773438 89.117187 106.703125 89.117187 7.914063 0 15.625-.722656 23.050781-2.089843.085938.074218 19.253906 15.703124 53.046875 20.957031 5.3125.828125 9.34375-5.109375 7.085938-10.367188l-13.082031-30.460937.011718.023437c22.417969-16.335937 36.585938-40.375 36.585938-67.179687zm0 0" fill="#6acb44"/><path d="m291.097656 96.621094c0-3.847656.289063-7.632813.855469-11.351563 6.675781 43.859375 51.519531 77.769531 105.84375 77.769531s99.167969-33.910156 105.84375-77.769531c.566406 3.71875.855469 7.507813.855469 11.351563 0 49.21875-47.769532 89.117187-106.699219 89.117187-7.914063 0-15.628906-.722656-23.050781-2.089843-.089844.074218-19.257813 15.703124-53.046875 20.957031-5.316407.828125-9.34375-5.109375-7.085938-10.367188l13.082031-30.460937-.011718.023437c-22.417969-16.335937-36.585938-40.375-36.585938-67.179687zm0 0" fill="#fc2b3a"/><path d="m220.054688 316.5625c-6.527344 0-11.839844 5.3125-11.839844 11.839844 0 6.53125 5.3125 11.84375 11.839844 11.84375 6.53125 0 11.84375-5.3125 11.84375-11.84375 0-6.527344-5.3125-11.839844-11.84375-11.839844zm0 0"/><path d="m291.945312 316.5625c-6.53125 0-11.84375 5.3125-11.84375 11.839844 0 6.53125 5.3125 11.84375 11.84375 11.84375s11.839844-5.3125 11.839844-11.84375c0-6.527344-5.308594-11.839844-11.839844-11.839844zm0 0"/><path d="m386.714844 409.417969c-5.917969 0-11.445313 1.695312-16.128906 4.621093-1.128907-2.714843-3.804688-4.621093-6.925782-4.621093h-65.21875v-13.949219h19.582032c12.40625 0 22.5-10.09375 22.5-22.5v-8.0625c2.828124.714844 5.75 1.097656 8.726562 1.097656 19.5625 0 35.480469-15.917968 35.480469-35.480468 0-19.566407-15.917969-35.484376-35.480469-35.484376-2.976562 0-5.898438.382813-8.726562 1.097657v-8.058594c0-12.40625-10.09375-22.5-22.5-22.5h-54.523438v-11.84375c13.550781-3.367187 23.625-15.628906 23.625-30.203125 0-17.164062-13.960938-31.125-31.125-31.125-17.160156 0-31.121094 13.960938-31.121094 31.125 0 14.574219 10.074219 26.835938 23.621094 30.203125v11.84375h-54.523438c-12.40625 0-22.5 10.09375-22.5 22.5v8.058594c-2.824218-.714844-5.746093-1.097657-8.722656-1.097657-19.566406 0-35.480468 15.917969-35.480468 35.484376 0 19.5625 15.914062 35.480468 35.480468 35.480468 2.976563 0 5.894532-.382812 8.722656-1.097656v8.0625c0 12.40625 10.09375 22.5 22.5 22.5h19.585938v13.949219h-65.222656c-3.121094 0-5.792969 1.90625-6.921875 4.621093-4.6875-2.925781-10.214844-4.621093-16.132813-4.621093-16.847656 0-30.550781 13.707031-30.550781 30.554687v63.480469c0 4.140625 3.355469 7.5 7.5 7.5h185.371094c4.140625 0 7.5-3.359375 7.5-7.5 0-4.144531-3.359375-7.5-7.5-7.5h-131.765625v-71.535156h200.320312v71.535156h-38.554687c-4.144531 0-7.5 3.355469-7.5 7.5 0 4.140625 3.355469 7.5 7.5 7.5h92.164062c4.144531 0 7.5-3.359375 7.5-7.5v-63.480469c0-16.847656-13.707031-30.554687-30.554687-30.554687zm-46.191406-97.414063c2.714843-1.285156 5.671874-1.964844 8.726562-1.964844 11.292969 0 20.480469 9.191407 20.480469 20.484376 0 11.292968-9.1875 20.480468-20.480469 20.480468-3.054688 0-6.011719-.679687-8.726562-1.960937zm-169.046876 37.039063c-2.710937 1.28125-5.671874 1.960937-8.722656 1.960937-11.296875 0-20.484375-9.1875-20.484375-20.480468 0-11.296876 9.191407-20.484376 20.484375-20.484376 3.050782 0 6.011719.683594 8.722656 1.964844zm-30.636718 146.910156h-31.109375v-55.980469c0-8.578125 6.980469-15.554687 15.554687-15.554687 8.578125 0 15.554688 6.976562 15.554688 15.554687zm99.039062-272.421875c0-8.890625 7.230469-16.125 16.121094-16.125s16.121094 7.234375 16.121094 16.125-7.230469 16.121094-16.121094 16.121094-16.121094-7.230469-16.121094-16.121094zm-45.902344 156.9375c-4.136718 0-7.5-3.367188-7.5-7.5v-84.890625c0-4.132813 3.363282-7.5 7.5-7.5h124.046876c4.136718 0 7.5 3.367187 7.5 7.5v84.890625c0 4.132812-3.363282 7.5-7.5 7.5zm89.464844 28.949219h-54.878906v-13.949219h54.878906zm118.828125 86.535156h-31.109375v-55.980469c0-8.578125 6.980469-15.554687 15.554688-15.554687 8.578125 0 15.554687 6.976562 15.554687 15.554687zm0 0"/><path d="m135.394531 191.589844c6.828125 4.746094 25.46875 16.027344 53.753907 20.425781 5.042968.785156 10.078124-1.332031 13.191406-5.34375 3.394531-4.378906 4.136718-10.273437 1.9375-15.394531l-10.777344-25.089844c22.261719-18.164062 34.90625-43.21875 34.90625-69.566406 0-53.277344-51.234375-96.621094-114.203125-96.621094-22.140625 0-43.613281 5.355469-62.09375 15.492188-1.960937 1.078124-3.90625 2.214843-5.777344 3.386718-3.511719 2.199219-4.578125 6.828125-2.382812 10.335938 2.199219 3.511718 6.824219 4.578125 10.335937 2.382812 1.632813-1.023437 3.324219-2.015625 5.035156-2.953125 16.277344-8.925781 35.257813-13.644531 54.882813-13.644531 54.699219 0 99.203125 36.613281 99.203125 81.621094 0 23.140625-12.023438 45.253906-33.007812 60.75-3.15625 1.917968-4.472657 5.902344-2.988282 9.363281l13.015625 30.292969c-14.292969-2.339844-25.769531-6.65625-33.960937-10.605469 3.234375-1.09375 6.421875-2.3125 9.558594-3.664063 3.804687-1.636718 5.558593-6.050781 3.917968-9.855468-1.636718-3.800782-6.050781-5.558594-9.855468-3.917969-14.050782 6.054687-29.917969 9.253906-45.882813 9.253906-54.699219 0-99.203125-36.613281-99.203125-81.617187 0-16.964844 6.289062-33.238282 18.183594-47.0625 2.703125-3.140625 2.347656-7.875-.792969-10.578125s-7.875-2.347657-10.578125.792969c-14.269531 16.585937-21.8125 36.242187-21.8125 56.847656 0 53.273437 51.230469 96.617187 114.203125 96.617187 7.199219 0 14.273437-.554687 21.191406-1.648437zm0 0"/><path d="m100.988281 129.34375c2 .03125 3.980469-.785156 5.394531-2.195312l51.816407-51.816407c2.929687-2.929687 2.929687-7.679687 0-10.605469-2.929688-2.929687-7.679688-2.929687-10.609375 0l-46.378906 46.378907-20.273438-21.277344c-2.855469-3-7.601562-3.113281-10.601562-.257813-3 2.855469-3.113282 7.601563-.257813 10.601563l25.570313 26.847656c1.394531 1.460938 3.320312 2.300781 5.339843 2.324219zm0 0"/><path d="m397.796875 0c-62.96875 0-114.199219 43.34375-114.199219 96.621094 0 26.347656 12.644532 51.402344 34.902344 69.566406l-10.777344 25.089844c-2.199218 5.121094-1.457031 11.015625 1.9375 15.394531 3.113282 4.011719 8.148438 6.128906 13.195313 5.34375 28.28125-4.398437 46.921875-15.679687 53.75-20.425781 6.921875 1.09375 13.992187 1.648437 21.195312 1.648437 15.257813 0 30.070313-2.5 44.027344-7.429687 3.90625-1.378906 5.953125-5.664063 4.574219-9.570313s-5.664063-5.953125-9.570313-4.574219c-12.347656 4.363282-25.480469 6.574219-39.03125 6.574219-15.964843 0-31.832031-3.199219-45.886719-9.253906-3.804687-1.640625-8.214843.117187-9.855468 3.917969-1.640625 3.804687.117187 8.21875 3.921875 9.855468 3.152343 1.359376 6.355469 2.582032 9.605469 3.679688-8.15625 3.933594-19.617188 8.238281-34.007813 10.589844l13.011719-30.292969c1.464844-3.40625.203125-7.3125-2.851563-9.261719-21.066406-15.503906-33.140625-37.660156-33.140625-60.855468 0-45.003907 44.5-81.617188 99.199219-81.617188 54.703125 0 99.203125 36.613281 99.203125 81.617188 0 24.046874-12.839844 46.769531-35.230469 62.347656-3.398437 2.367187-4.238281 7.042968-1.875 10.441406 2.367188 3.398438 7.042969 4.238281 10.441407 1.871094 26.480468-18.421875 41.664062-45.636719 41.664062-74.660156 0-53.273438-51.230469-96.617188-114.203125-96.617188zm0 0"/><path d="m429.007812 64.722656c-2.929687-2.925781-7.675781-2.925781-10.605468 0l-20.605469 20.605469-20.601563-20.605469c-2.929687-2.925781-7.675781-2.929687-10.609374 0-2.925782 2.929688-2.925782 7.679688 0 10.609375l20.605468 20.601563-20.605468 20.605468c-2.925782 2.929688-2.925782 7.679688 0 10.605469 2.890624 2.890625 7.71875 2.890625 10.609374 0l20.601563-20.605469 20.605469 20.605469c2.890625 2.890625 7.71875 2.890625 10.605468 0 2.929688-2.929687 2.929688-7.675781 0-10.605469l-20.601562-20.605468 20.601562-20.601563c2.929688-2.929687 2.929688-7.679687 0-10.609375zm0 0"/></svg>