<svg id="Layer_1" enable-background="new 0 0 512 512" height="512" viewBox="0 0 512 512" width="512" xmlns="http://www.w3.org/2000/svg"><path d="m454.5 504.5h-397c-27.614 0-50-22.386-50-50v-342h497v342c0 27.614-22.386 50-50 50z" fill="#f5f5fc"/><path d="m87.5 297.5h337c22.091 0 40 17.909 40 40 0 22.091-17.909 40-40 40h-337c-22.091 0-40-17.909-40-40 0-22.091 17.909-40 40-40z" fill="#b5efff"/><path d="m87.5 337.5c0-22.091 17.909-40 40-40h-40c-22.091 0-40 17.909-40 40 0 22.091 17.909 40 40 40h40c-22.091 0-40-17.909-40-40z" fill="#a3d4ff"/><path d="m47.5 454.5v-342h-40v342c0 27.614 22.386 50 50 50h40c-27.614 0-50-22.386-50-50z" fill="#ebebf5"/><path d="m504.5 137.5h-497v-80c0-27.614 22.386-50 50-50h397c27.614 0 50 22.386 50 50z" fill="#b5efff"/><path d="m97.5 7.5h-40c-27.614 0-50 22.386-50 50v80h40v-80c0-27.614 22.386-50 50-50z" fill="#a3d4ff"/><path d="m428.661 337.754-86.245-16.301c-8.544-1.615-16.034 5.875-14.419 14.419l16.301 86.245c1.842 9.744 13.842 13.447 20.854 6.435l13.155-13.155 45.487 45.487c4.82 4.82 12.634 4.82 17.454 0l26.18-26.18c4.82-4.82 4.82-12.634 0-17.454l-45.487-45.487 13.155-13.155c7.012-7.012 3.309-19.012-6.435-20.854z" fill="#988fc4"/><path d="m393.053 400.651-14.746 14.746 47.142 47.143c3.905 3.905 10.237 3.905 14.142 0l7.675-7.675c3.905-3.905 3.905-10.237 0-14.142l-40.071-40.071c-3.906-3.906-10.237-3.906-14.142-.001z" fill="#897bad"/><circle cx="429.5" cy="72.5" fill="#ff9696" r="25"/><circle cx="349.5" cy="72.5" fill="#f5f5fc" r="25"/><path d="m82.5 47.5h187c13.807 0 25 11.193 25 25 0 13.807-11.193 25-25 25h-187c-13.807 0-25-11.193-25-25 0-13.807 11.193-25 25-25z" fill="#a3d4ff"/><path d="m97.5 72.5c0-13.807 11.193-25 25-25h-40c-13.807 0-25 11.193-25 25s11.193 25 25 25h40c-13.807 0-25-11.193-25-25z" fill="#87c7ff"/><path d="m87.5 177.5h337c22.091 0 40 17.909 40 40 0 22.091-17.909 40-40 40h-337c-22.091 0-40-17.909-40-40 0-22.091 17.909-40 40-40z" fill="#b5efff"/><path d="m87.5 217.5c0-22.091 17.909-40 40-40h-40c-22.091 0-40 17.909-40 40 0 22.091 17.909 40 40 40h40c-22.091 0-40-17.909-40-40z" fill="#a3d4ff"/><g fill="#fff"><circle cx="136" cy="217.5" r="20"/><circle cx="216" cy="217.5" r="20"/><circle cx="296" cy="217.5" r="20"/><circle cx="376" cy="217.5" r="20"/></g><path d="m454.5 0h-397c-31.706 0-57.5 25.794-57.5 57.5v80 317c0 31.706 25.794 57.5 57.5 57.5h397c31.706 0 57.5-25.794 57.5-57.5v-317-80c0-31.706-25.794-57.5-57.5-57.5zm-439.5 57.5c0-23.435 19.065-42.5 42.5-42.5h397c23.435 0 42.5 19.065 42.5 42.5v72.5h-482zm439.5 439.5h-397c-23.435 0-42.5-19.065-42.5-42.5v-309.5h482v309.5c0 23.435-19.065 42.5-42.5 42.5z"/><path d="m442.317 381.533c17.537-7.103 29.683-24.323 29.683-44.033 0-26.191-21.309-47.5-47.5-47.5h-234.5c-4.142 0-7.5 3.357-7.5 7.5s3.358 7.5 7.5 7.5h234.5c17.92 0 32.5 14.579 32.5 32.5 0 13.499-8.32 25.289-20.33 30.141l3.729-3.729c5.215-5.216 7.104-12.834 4.928-19.882-2.175-7.047-8.028-12.275-15.273-13.644l-86.245-16.301c-6.45-1.221-13.072.822-17.714 5.465s-6.686 11.265-5.467 17.716l6.187 32.734h-239.315c-17.92 0-32.5-14.579-32.5-32.5s14.58-32.5 32.5-32.5h74.5c4.142 0 7.5-3.357 7.5-7.5s-3.358-7.5-7.5-7.5h-74.5c-26.191 0-47.5 21.309-47.5 47.5s21.309 47.5 47.5 47.5h242.15l7.278 38.51c1.37 7.248 6.599 13.101 13.647 15.275 7.047 2.175 14.665.285 19.879-4.929l7.852-7.853 10.897 10.897c2.929 2.928 7.678 2.928 10.606 0 2.929-2.93 2.929-7.678 0-10.607l-16.2-16.2c-2.929-2.928-7.678-2.928-10.606 0l-13.155 13.155c-1.861 1.862-4.011 1.463-4.851 1.203-.838-.259-2.841-1.14-3.33-3.728l-8.452-44.72c-.002-.008-.003-.016-.005-.025l-7.843-41.499c-.429-2.27.79-3.779 1.334-4.323.544-.543 2.057-1.755 4.322-1.334l86.246 16.302c2.586.488 3.467 2.49 3.726 3.328.259.839.66 2.989-1.203 4.852l-13.155 13.155c-1.407 1.407-2.197 3.314-2.197 5.304s.79 3.896 2.197 5.304l45.487 45.486c.915.914 1.418 2.13 1.418 3.423s-.503 2.509-1.418 3.423l-26.18 26.181c-1.887 1.889-4.958 1.889-6.847.001l-9.681-9.682c-2.929-2.93-7.678-2.929-10.606-.001-2.929 2.929-2.929 7.678 0 10.606l9.681 9.683c3.868 3.867 8.949 5.802 14.03 5.802s10.162-1.935 14.03-5.802l26.18-26.181c3.748-3.748 5.812-8.73 5.812-14.03s-2.064-10.282-5.812-14.03z"/><path d="m429.5 40c-17.92 0-32.5 14.579-32.5 32.5s14.58 32.5 32.5 32.5 32.5-14.579 32.5-32.5-14.58-32.5-32.5-32.5zm0 50c-9.649 0-17.5-7.851-17.5-17.5s7.851-17.5 17.5-17.5 17.5 7.851 17.5 17.5-7.851 17.5-17.5 17.5z"/><path d="m349.5 40c-17.92 0-32.5 14.579-32.5 32.5s14.58 32.5 32.5 32.5 32.5-14.579 32.5-32.5-14.58-32.5-32.5-32.5zm0 50c-9.649 0-17.5-7.851-17.5-17.5s7.851-17.5 17.5-17.5 17.5 7.851 17.5 17.5-7.851 17.5-17.5 17.5z"/><path d="m269.5 40h-187c-17.92 0-32.5 14.579-32.5 32.5s14.58 32.5 32.5 32.5h187c17.92 0 32.5-14.579 32.5-32.5s-14.58-32.5-32.5-32.5zm0 50h-187c-9.649 0-17.5-7.851-17.5-17.5s7.851-17.5 17.5-17.5h187c9.649 0 17.5 7.851 17.5 17.5s-7.851 17.5-17.5 17.5z"/><path d="m87.5 265h337c26.191 0 47.5-21.309 47.5-47.5s-21.309-47.5-47.5-47.5h-337c-26.191 0-47.5 21.309-47.5 47.5s21.309 47.5 47.5 47.5zm0-80h337c17.92 0 32.5 14.579 32.5 32.5s-14.58 32.5-32.5 32.5h-337c-17.92 0-32.5-14.579-32.5-32.5s14.58-32.5 32.5-32.5z"/><path d="m136 245c15.164 0 27.5-12.337 27.5-27.5s-12.336-27.5-27.5-27.5-27.5 12.337-27.5 27.5 12.336 27.5 27.5 27.5zm0-40c6.893 0 12.5 5.607 12.5 12.5s-5.607 12.5-12.5 12.5-12.5-5.607-12.5-12.5 5.607-12.5 12.5-12.5z"/><path d="m216 245c15.164 0 27.5-12.337 27.5-27.5s-12.336-27.5-27.5-27.5-27.5 12.337-27.5 27.5 12.336 27.5 27.5 27.5zm0-40c6.893 0 12.5 5.607 12.5 12.5s-5.607 12.5-12.5 12.5-12.5-5.607-12.5-12.5 5.607-12.5 12.5-12.5z"/><path d="m296 245c15.164 0 27.5-12.337 27.5-27.5s-12.336-27.5-27.5-27.5-27.5 12.337-27.5 27.5 12.336 27.5 27.5 27.5zm0-40c6.893 0 12.5 5.607 12.5 12.5s-5.607 12.5-12.5 12.5-12.5-5.607-12.5-12.5 5.607-12.5 12.5-12.5z"/><path d="m376 245c15.164 0 27.5-12.337 27.5-27.5s-12.336-27.5-27.5-27.5-27.5 12.337-27.5 27.5 12.336 27.5 27.5 27.5zm0-40c6.893 0 12.5 5.607 12.5 12.5s-5.607 12.5-12.5 12.5-12.5-5.607-12.5-12.5 5.607-12.5 12.5-12.5z"/></svg>