<?xml version="1.0" encoding="iso-8859-1"?>
<!-- Generator: Adobe Illustrator 19.0.0, SVG Export Plug-In . SVG Version: 6.00 Build 0)  -->
<svg version="1.1" id="Capa_1" xmlns="http://www.w3.org/2000/svg" xmlns:xlink="http://www.w3.org/1999/xlink" x="0px" y="0px"
	 viewBox="0 0 512.001 512.001" style="enable-background:new 0 0 512.001 512.001;" xml:space="preserve">
<circle style="fill:#FFD039;" cx="255.588" cy="152.863" r="144.934"/>
<path style="fill:#FFAE47;" d="M255.59,7.937c-4.211,0-8.376,0.19-12.496,0.542c74.191,6.337,132.434,68.556,132.434,144.388
	s-58.243,138.051-132.434,144.388c4.12,0.352,8.285,0.542,12.496,0.542c80.042,0,144.93-64.887,144.93-144.931
	S335.632,7.937,255.59,7.937z"/>
<path style="fill:#00B76C;" d="M234.887,214.56c-4.828,0-9.459-1.918-12.873-5.332l-41.408-41.408c-7.11-7.11-7.11-18.637,0-25.747
	s18.636-7.11,25.746,0l28.534,28.535l69.942-69.942c7.11-7.11,18.636-7.111,25.746-0.001c7.11,7.11,7.11,18.637,0,25.747
	l-82.814,82.813C244.346,212.641,239.714,214.56,234.887,214.56z"/>
<path style="fill:#F7B081;" d="M350.992,378.389L350.992,378.389c0,10.303-7.665,18.997-17.885,20.289l-127.235,16.087l54.037,6.502
	c50.437,6.069,101.504-3.935,145.923-28.585l49.501-27.47c9.646-5.353,12.475-17.915,6.055-26.887
	c-5.367-7.501-15.448-9.89-23.61-5.595L350.992,378.389L350.992,378.389L350.992,378.389z"/>
<path style="fill:#DB9975;" d="M455.333,365.212c8.589-4.766,11.754-15.244,7.815-23.818l-118.222,63.25l-43.782-1.923
	l-95.273,12.045l54.037,6.502c50.437,6.069,101.504-3.935,145.923-28.585L455.333,365.212z"/>
<g>
	<path style="fill:#F7B081;" d="M330.541,357.939c11.294,0,20.45,9.156,20.45,20.45l0,0l48.195-25.357
		c9.303-4.894,12.558-16.617,7.11-25.607l0,0c-5.044-8.323-15.733-11.224-24.292-6.592l-68.56,37.105l0,0L330.541,357.939
		L330.541,357.939z"/>
	<path style="fill:#F7B081;" d="M230.154,357.939l99.535-52.114c8.332-4.363,18.602-1.991,24.178,5.583l0,0
		c6.858,9.316,3.899,22.543-6.274,28.049l-34.15,18.482H230.154z"/>
</g>
<path style="fill:#FFC89F;" d="M61.941,389.178c0,0,37.235-31.441,83.374-40.018c46.139-8.577,84.84,8.779,84.84,8.779h100.387
	c11.294,0,20.45,9.156,20.45,20.45l0,0c0,10.303-7.665,18.997-17.885,20.289l-127.235,16.087l54.037,6.502
	c50.438,6.069,101.504-3.935,145.923-28.585l67.607-37.518c9.185-4.835,20.52-2.305,26.778,5.976l0,0
	c7.81,10.337,4.6,25.199-6.781,31.39l-98.859,53.779c-49.552,26.955-105.965,62.293-162.152,57.287L61.941,488.402H7.498v-99.224
	L61.941,389.178L61.941,389.178z"/>
<path style="fill:#F7B081;" d="M500.218,361.14c-0.426-0.564-0.88-1.095-1.35-1.604c-1.509,5.212-5.002,9.875-10.22,12.713
	l-98.859,53.779c-49.552,26.955-105.966,62.293-162.152,57.287L57.152,468.121H7.498v20.281h54.444l170.484,15.193
	c56.187,5.007,112.6-30.33,162.152-57.287l98.859-53.779C504.817,386.339,508.027,371.477,500.218,361.14z"/>
<g>
	<path style="fill:#DB9975;" d="M313.444,357.939l34.15-18.482c8.851-4.79,12.237-15.424,8.453-24.242l-78.063,42.724H313.444z"/>
	<path style="fill:#DB9975;" d="M350.992,378.389L350.992,378.389l48.195-25.356c8.05-4.236,11.558-13.581,8.831-21.847
		L345.42,364.39C348.866,368.05,350.992,372.966,350.992,378.389z"/>
</g>
<path d="M175.304,173.122l41.408,41.408c4.854,4.853,11.309,7.528,18.175,7.528c6.866,0,13.32-2.674,18.175-7.529l82.813-82.813
	c4.854-4.855,7.529-11.31,7.529-18.176c0-6.866-2.674-13.321-7.529-18.175c-10.022-10.021-26.329-10.019-36.349,0.001l-64.638,64.64
	l-23.233-23.234c-4.854-4.854-11.309-7.529-18.175-7.529s-13.32,2.673-18.174,7.528c-4.855,4.854-7.529,11.309-7.529,18.175
	S170.449,168.268,175.304,173.122z M185.908,147.374c2.021-2.022,4.71-3.136,7.571-3.136c2.859,0,5.549,1.114,7.571,3.136
	l28.535,28.535c1.407,1.407,3.313,2.196,5.302,2.196c1.988,0,3.895-0.79,5.302-2.196l69.94-69.941
	c4.177-4.177,10.97-4.176,15.144-0.001c2.021,2.022,3.136,4.711,3.136,7.572s-1.114,5.549-3.137,7.573l-82.814,82.814
	c-2.022,2.022-4.712,3.136-7.571,3.136c-2.86,0-5.55-1.114-7.572-3.136l-41.407-41.407c-2.022-2.022-3.137-4.711-3.137-7.573
	S183.885,149.398,185.908,147.374z"/>
<path d="M255.59,305.295c84.049,0,152.428-68.379,152.428-152.428S339.64,0.438,255.59,0.438c-26.053,0-51.766,6.688-74.364,19.341
	c-3.613,2.022-4.901,6.592-2.879,10.205c2.022,3.613,6.593,4.902,10.205,2.879c20.364-11.402,43.546-17.429,67.039-17.429
	c75.781,0,137.433,61.652,137.433,137.433S331.371,290.3,255.59,290.3s-137.433-61.652-137.433-137.433
	c0-39.716,17.181-77.48,47.136-103.61c3.121-2.722,3.444-7.458,0.723-10.579c-2.723-3.121-7.46-3.443-10.579-0.722
	c-33.221,28.978-52.275,70.861-52.275,114.91C103.162,236.916,171.541,305.295,255.59,305.295z"/>
<path d="M348.004,463.218c-34.647,18.249-75.401,36.431-114.912,32.908L62.607,480.935c-0.222-0.02-0.443-0.03-0.666-0.03H14.995
	v-84.229h46.946c1.77,0,3.484-0.627,4.837-1.769c0.176-0.148,17.883-14.984,43.574-26.626c3.771-1.709,5.443-6.152,3.734-9.924
	c-1.71-3.772-6.154-5.443-9.924-3.735c-22.508,10.2-39.109,22.52-44.872,27.058H7.498c-4.141,0-7.498,3.357-7.498,7.498v99.224
	c0,4.141,3.357,7.498,7.498,7.498h54.111l170.151,15.163c3.81,0.34,7.615,0.501,11.416,0.501c39.52,0,78.444-17.501,111.816-35.079
	c3.664-1.929,5.069-6.464,3.14-10.128C356.202,462.695,351.67,461.288,348.004,463.218z"/>
<path d="M506.199,356.62c-7.99-10.576-21.915-14.221-33.927-9.186c-0.305-4.803-1.932-9.484-4.786-13.472
	c-7.509-10.494-21.781-13.874-33.199-7.867l-17.902,9.419c-0.227-4.198-1.466-8.327-3.676-11.973
	c-7.125-11.759-22.181-15.843-34.272-9.3l-13.39,7.247c-0.238-5.191-1.997-10.254-5.14-14.523c-7.828-10.633-22-13.905-33.693-7.78
	l-96.455,50.501c-10.831-4.153-45.413-15.405-85.813-7.894c-2.987,0.556-6.044,1.224-9.085,1.984
	c-4.018,1.007-6.458,5.078-5.451,9.095c1.007,4.017,5.083,6.453,9.095,5.451c2.743-0.688,5.496-1.289,8.182-1.788
	c43.132-8.016,80.043,8.089,80.401,8.248c0.151,0.068,0.306,0.121,0.461,0.178c0.064,0.024,0.126,0.052,0.191,0.074
	c0.341,0.116,0.689,0.204,1.042,0.27c0.082,0.015,0.164,0.027,0.247,0.039c0.373,0.057,0.75,0.096,1.129,0.096h83.29h17.097
	c7.143,0,12.953,5.811,12.953,12.953c0,6.51-4.87,12.034-11.328,12.851l-127.234,16.087c-3.757,0.475-6.569,3.675-6.558,7.461
	c0.001,0.473,0.047,0.937,0.133,1.388c0.601,3.152,3.18,5.638,6.47,6.034l54.037,6.502c1.478,0.178,2.955,0.339,4.432,0.49
	c0.458,0.047,0.916,0.09,1.374,0.134c1.05,0.102,2.098,0.198,3.147,0.286c0.496,0.042,0.992,0.084,1.487,0.123
	c1.159,0.091,2.316,0.173,3.474,0.248c0.328,0.021,0.656,0.047,0.984,0.067c1.446,0.088,2.89,0.162,4.334,0.225
	c0.46,0.02,0.919,0.034,1.378,0.052c1.022,0.039,2.042,0.073,3.062,0.099c0.544,0.014,1.089,0.026,1.632,0.037
	c1.009,0.019,2.016,0.031,3.024,0.038c0.475,0.003,0.949,0.01,1.424,0.011c0.117,0,0.235,0.003,0.353,0.003
	c1.329,0,2.656-0.011,3.983-0.032c0.383-0.006,0.765-0.019,1.148-0.027c1.1-0.023,2.199-0.05,3.297-0.087
	c0.583-0.02,1.166-0.045,1.747-0.069c0.911-0.037,1.82-0.078,2.729-0.126c0.609-0.032,1.218-0.065,1.825-0.101
	c0.92-0.055,1.838-0.116,2.757-0.181c0.567-0.04,1.134-0.077,1.7-0.121c1.235-0.096,2.468-0.202,3.701-0.316
	c0.457-0.042,0.913-0.087,1.369-0.131c1.199-0.118,2.397-0.243,3.594-0.379c0.57-0.065,1.14-0.136,1.709-0.204
	c0.905-0.109,1.808-0.221,2.711-0.34c0.608-0.08,1.216-0.163,1.822-0.247c0.892-0.124,1.783-0.255,2.673-0.389
	c0.579-0.087,1.158-0.172,1.736-0.263c1.082-0.171,2.161-0.351,3.24-0.536c0.373-0.064,0.746-0.122,1.118-0.188
	c1.404-0.247,2.805-0.509,4.204-0.781c0.533-0.103,1.064-0.214,1.596-0.321c0.92-0.185,1.838-0.373,2.755-0.568
	c0.59-0.126,1.18-0.255,1.768-0.385c0.884-0.195,1.767-0.396,2.65-0.601c0.568-0.132,1.136-0.263,1.702-0.399
	c1.014-0.243,2.026-0.496,3.038-0.752c0.419-0.106,0.84-0.208,1.259-0.316c1.39-0.36,2.777-0.733,4.161-1.117
	c0.467-0.13,0.933-0.267,1.4-0.399c0.961-0.273,1.92-0.549,2.878-0.834c0.553-0.164,1.105-0.333,1.656-0.501
	c0.892-0.272,1.783-0.549,2.672-0.832c0.544-0.173,1.087-0.345,1.629-0.521c0.977-0.317,1.95-0.643,2.923-0.973
	c0.433-0.147,0.868-0.289,1.3-0.439c1.376-0.475,2.748-0.961,4.117-1.461c0.366-0.133,0.729-0.273,1.094-0.408
	c1.032-0.382,2.062-0.769,3.09-1.165c0.508-0.196,1.015-0.396,1.522-0.596c0.901-0.354,1.799-0.713,2.697-1.078
	c0.516-0.21,1.032-0.42,1.547-0.633c0.95-0.394,1.897-0.795,2.843-1.201c0.432-0.185,0.864-0.367,1.295-0.554
	c1.356-0.591,2.708-1.192,4.056-1.807c0.224-0.102,0.447-0.21,0.671-0.313c1.139-0.524,2.273-1.056,3.406-1.598
	c0.458-0.219,0.914-0.443,1.37-0.665c0.911-0.443,1.819-0.89,2.727-1.345c0.486-0.243,0.971-0.488,1.456-0.735
	c0.924-0.471,1.845-0.949,2.766-1.432c0.425-0.223,0.851-0.443,1.275-0.669c1.33-0.707,2.655-1.424,3.975-2.155l49.502-27.47l0,0
	L477,361.769c5.952-3.094,13.19-1.461,17.238,3.897c2.404,3.183,3.302,7.246,2.459,11.145c-0.843,3.901-3.337,7.231-6.842,9.138
	l-98.859,53.779c-5.13,2.791-10.335,5.671-15.603,8.587l-0.679,0.376c-3.623,2.005-4.934,6.568-2.929,10.191
	c1.368,2.472,3.928,3.869,6.566,3.869c1.228,0,2.474-0.303,3.624-0.939l0.679-0.376c5.236-2.898,10.408-5.761,15.508-8.534
	l98.859-53.779c7.344-3.995,12.567-10.973,14.332-19.144C513.117,371.802,511.239,363.29,506.199,356.62z M385.573,327.428
	c5.053-2.734,11.337-1.027,14.311,3.884c1.553,2.561,1.966,5.561,1.165,8.447c-0.802,2.886-2.702,5.243-5.353,6.639l-39.543,20.804
	c-0.06-0.138-0.129-0.271-0.191-0.408c-0.109-0.238-0.218-0.475-0.333-0.709c-0.091-0.185-0.186-0.367-0.281-0.549
	c-0.12-0.23-0.24-0.459-0.366-0.686c-0.1-0.179-0.203-0.356-0.306-0.532c-0.131-0.224-0.264-0.447-0.401-0.667
	c-0.108-0.173-0.219-0.345-0.331-0.516c-0.141-0.216-0.284-0.43-0.431-0.641c-0.118-0.169-0.237-0.337-0.358-0.504
	c-0.15-0.206-0.303-0.411-0.458-0.613c-0.126-0.164-0.253-0.326-0.382-0.486c-0.16-0.199-0.323-0.395-0.489-0.59
	c-0.134-0.157-0.268-0.313-0.405-0.467c-0.17-0.191-0.343-0.378-0.518-0.565c-0.14-0.149-0.28-0.298-0.424-0.445
	c-0.181-0.184-0.365-0.364-0.551-0.543c-0.145-0.141-0.291-0.282-0.439-0.419c-0.191-0.177-0.387-0.348-0.583-0.52
	c-0.151-0.132-0.301-0.265-0.454-0.394c-0.202-0.169-0.409-0.332-0.615-0.495c-0.155-0.122-0.308-0.247-0.466-0.367
	c-0.215-0.163-0.436-0.319-0.656-0.476c-0.155-0.111-0.309-0.224-0.466-0.332c-0.235-0.16-0.476-0.313-0.716-0.466
	c-0.149-0.095-0.295-0.194-0.447-0.287c-0.269-0.165-0.545-0.32-0.82-0.476c-0.128-0.072-0.253-0.149-0.382-0.22
	c-0.407-0.222-0.82-0.435-1.238-0.637c-0.01-0.005-0.02-0.009-0.03-0.013c-0.409-0.197-0.823-0.384-1.243-0.561
	c-0.147-0.062-0.298-0.116-0.446-0.176c-0.285-0.114-0.569-0.23-0.858-0.335c-0.023-0.008-0.045-0.018-0.068-0.026l11.158-6.039
	c0.002-0.001,0.005-0.003,0.007-0.004L385.573,327.428z M333.168,312.468c5.088-2.666,11.257-1.241,14.661,3.386
	c2.012,2.732,2.712,6.06,1.971,9.371s-2.792,6.023-5.775,7.639l-32.48,17.578h-50.907L333.168,312.468z M334.046,406.117
	c0.71-0.09,1.408-0.212,2.099-0.354c0.092-0.019,0.185-0.035,0.277-0.055c0.655-0.141,1.299-0.307,1.935-0.493
	c0.114-0.033,0.227-0.066,0.34-0.101c0.629-0.192,1.249-0.404,1.857-0.639c0.097-0.037,0.192-0.077,0.288-0.115
	c0.627-0.249,1.245-0.516,1.847-0.808c0.035-0.017,0.069-0.036,0.104-0.053c0.602-0.295,1.19-0.612,1.766-0.947
	c0.054-0.031,0.109-0.061,0.162-0.092c0.568-0.336,1.12-0.694,1.659-1.068c0.086-0.06,0.173-0.119,0.259-0.179
	c0.525-0.372,1.037-0.761,1.534-1.167c0.081-0.066,0.16-0.133,0.24-0.2c0.503-0.42,0.993-0.853,1.464-1.307
	c0.045-0.044,0.089-0.089,0.133-0.133c0.48-0.467,0.945-0.949,1.39-1.45c0.017-0.019,0.034-0.036,0.05-0.055
	c0.443-0.5,0.864-1.02,1.271-1.549c0.056-0.073,0.113-0.145,0.169-0.219c0.387-0.515,0.754-1.044,1.105-1.584
	c0.059-0.09,0.116-0.181,0.174-0.272c0.345-0.547,0.674-1.104,0.982-1.673c0.042-0.077,0.081-0.156,0.122-0.234
	c0.316-0.6,0.616-1.209,0.889-1.831c0.001-0.003,0.002-0.007,0.004-0.01c0.271-0.621,0.515-1.255,0.741-1.897
	c0.029-0.083,0.061-0.164,0.089-0.247c0.21-0.614,0.396-1.238,0.563-1.869c0.031-0.117,0.062-0.233,0.091-0.351
	c0.157-0.626,0.294-1.259,0.408-1.899c0.008-0.047,0.022-0.092,0.03-0.138l41.496-21.832l3.097-1.629c0,0,0,0,0.001,0l38.591-20.303
	c4.823-2.538,10.852-1.109,14.021,3.323c1.844,2.577,2.476,5.698,1.78,8.79c-0.696,3.09-2.604,5.639-5.374,7.177l-49.504,27.471
	c-2.585,1.435-5.189,2.817-7.813,4.149c-0.022,0.011-0.044,0.022-0.067,0.033c-31.46,15.951-65.61,24.466-100.516,25.17
	c-0.914,0.018-1.828,0.022-2.743,0.03c-0.543,0.005-1.085,0.017-1.627,0.018c-7.29,0.011-14.609-0.319-21.94-0.993L334.046,406.117z
	"/>
<g>
</g>
<g>
</g>
<g>
</g>
<g>
</g>
<g>
</g>
<g>
</g>
<g>
</g>
<g>
</g>
<g>
</g>
<g>
</g>
<g>
</g>
<g>
</g>
<g>
</g>
<g>
</g>
<g>
</g>
</svg>
